<?xml version="1.0" encoding="utf-8" standalone="no"?>
<!DOCTYPE svg PUBLIC "-//W3C//DTD SVG 1.1//EN"
  "http://www.w3.org/Graphics/SVG/1.1/DTD/svg11.dtd">
<svg xmlns:xlink="http://www.w3.org/1999/xlink" width="1073.999311pt" height="464.343447pt" viewBox="0 0 1073.999311 464.343447" xmlns="http://www.w3.org/2000/svg" version="1.1">
 <metadata>
  <rdf:RDF xmlns:dc="http://purl.org/dc/elements/1.1/" xmlns:cc="http://creativecommons.org/ns#" xmlns:rdf="http://www.w3.org/1999/02/22-rdf-syntax-ns#">
   <cc:Work>
    <dc:type rdf:resource="http://purl.org/dc/dcmitype/StillImage"/>
    <dc:date>2026-04-04T02:01:29.942819</dc:date>
    <dc:format>image/svg+xml</dc:format>
    <dc:creator>
     <cc:Agent>
      <dc:title>Matplotlib v3.10.8, https://matplotlib.org/</dc:title>
     </cc:Agent>
    </dc:creator>
   </cc:Work>
  </rdf:RDF>
 </metadata>
 <defs>
  <style type="text/css">*{stroke-linejoin: round; stroke-linecap: butt}</style>
 </defs>
 <g id="figure_1">
  <g id="patch_1">
   <path d="M 0 464.343447 
L 1073.999311 464.343447 
L 1073.999311 0 
L 0 0 
z
" style="fill: #ffffff"/>
  </g>
  <g id="axes_1">
   <g id="patch_2">
    <path d="M 113.935938 417.24327 
L 502.360655 417.24327 
L 502.360655 43.803605 
L 113.935938 43.803605 
z
" style="fill: #ffffff"/>
   </g>
   <g id="patch_3">
    <path d="M 113.935938 60.778135 
L 483.86424 60.778135 
L 483.86424 117.359903 
L 113.935938 117.359903 
z
" clip-path="url(#p54fabaebb1)" style="fill: #1f77b4; opacity: 0.92"/>
   </g>
   <g id="patch_4">
    <path d="M 113.935938 131.505345 
L 366.300851 131.505345 
L 366.300851 188.087112 
L 113.935938 188.087112 
z
" clip-path="url(#p54fabaebb1)" style="fill: #1f77b4; opacity: 0.92"/>
   </g>
   <g id="patch_5">
    <path d="M 113.935938 202.232554 
L 312.86886 202.232554 
L 312.86886 258.814321 
L 113.935938 258.814321 
z
" clip-path="url(#p54fabaebb1)" style="fill: #d62728; opacity: 0.92"/>
   </g>
   <g id="patch_6">
    <path d="M 113.935938 272.959763 
L 299.335247 272.959763 
L 299.335247 329.54153 
L 113.935938 329.54153 
z
" clip-path="url(#p54fabaebb1)" style="fill: #d62728; opacity: 0.92"/>
   </g>
   <g id="patch_7">
    <path d="M 113.935938 343.686972 
L 199.920514 343.686972 
L 199.920514 400.26874 
L 113.935938 400.26874 
z
" clip-path="url(#p54fabaebb1)" style="fill: #d62728; opacity: 0.92"/>
   </g>
   <g id="matplotlib.axis_1">
    <g id="xtick_1">
     <g id="line2d_1">
      <path d="M 113.935938 417.24327 
L 113.935938 43.803605 
" clip-path="url(#p54fabaebb1)" style="fill: none; stroke: #b0b0b0; stroke-opacity: 0.2; stroke-width: 0.8; stroke-linecap: square"/>
     </g>
     <g id="line2d_2">
      <defs>
       <path id="m9d370045f7" d="M 0 0 
L 0 3.5 
" style="stroke: #000000; stroke-width: 0.8"/>
      </defs>
      <g>
       <use xlink:href="#m9d370045f7" x="113.935938" y="417.24327" style="stroke: #000000; stroke-width: 0.8"/>
      </g>
     </g>
     <g id="text_1">
      <!-- 0.0 -->
      <g transform="translate(105.984375 431.841707) scale(0.1 -0.1)">
       <defs>
        <path id="DejaVuSans-30" d="M 2034 4250 
Q 1547 4250 1301 3770 
Q 1056 3291 1056 2328 
Q 1056 1369 1301 889 
Q 1547 409 2034 409 
Q 2525 409 2770 889 
Q 3016 1369 3016 2328 
Q 3016 3291 2770 3770 
Q 2525 4250 2034 4250 
z
M 2034 4750 
Q 2819 4750 3233 4129 
Q 3647 3509 3647 2328 
Q 3647 1150 3233 529 
Q 2819 -91 2034 -91 
Q 1250 -91 836 529 
Q 422 1150 422 2328 
Q 422 3509 836 4129 
Q 1250 4750 2034 4750 
z
" transform="scale(0.015625)"/>
        <path id="DejaVuSans-2e" d="M 684 794 
L 1344 794 
L 1344 0 
L 684 0 
L 684 794 
z
" transform="scale(0.015625)"/>
       </defs>
       <use xlink:href="#DejaVuSans-30"/>
       <use xlink:href="#DejaVuSans-2e" transform="translate(63.623047 0)"/>
       <use xlink:href="#DejaVuSans-30" transform="translate(95.410156 0)"/>
      </g>
     </g>
    </g>
    <g id="xtick_2">
     <g id="line2d_3">
      <path d="M 195.655722 417.24327 
L 195.655722 43.803605 
" clip-path="url(#p54fabaebb1)" style="fill: none; stroke: #b0b0b0; stroke-opacity: 0.2; stroke-width: 0.8; stroke-linecap: square"/>
     </g>
     <g id="line2d_4">
      <g>
       <use xlink:href="#m9d370045f7" x="195.655722" y="417.24327" style="stroke: #000000; stroke-width: 0.8"/>
      </g>
     </g>
     <g id="text_2">
      <!-- 0.5 -->
      <g transform="translate(187.704159 431.841707) scale(0.1 -0.1)">
       <defs>
        <path id="DejaVuSans-35" d="M 691 4666 
L 3169 4666 
L 3169 4134 
L 1269 4134 
L 1269 2991 
Q 1406 3038 1543 3061 
Q 1681 3084 1819 3084 
Q 2600 3084 3056 2656 
Q 3513 2228 3513 1497 
Q 3513 744 3044 326 
Q 2575 -91 1722 -91 
Q 1428 -91 1123 -41 
Q 819 9 494 109 
L 494 744 
Q 775 591 1075 516 
Q 1375 441 1709 441 
Q 2250 441 2565 725 
Q 2881 1009 2881 1497 
Q 2881 1984 2565 2268 
Q 2250 2553 1709 2553 
Q 1456 2553 1204 2497 
Q 953 2441 691 2322 
L 691 4666 
z
" transform="scale(0.015625)"/>
       </defs>
       <use xlink:href="#DejaVuSans-30"/>
       <use xlink:href="#DejaVuSans-2e" transform="translate(63.623047 0)"/>
       <use xlink:href="#DejaVuSans-35" transform="translate(95.410156 0)"/>
      </g>
     </g>
    </g>
    <g id="xtick_3">
     <g id="line2d_5">
      <path d="M 277.375506 417.24327 
L 277.375506 43.803605 
" clip-path="url(#p54fabaebb1)" style="fill: none; stroke: #b0b0b0; stroke-opacity: 0.2; stroke-width: 0.8; stroke-linecap: square"/>
     </g>
     <g id="line2d_6">
      <g>
       <use xlink:href="#m9d370045f7" x="277.375506" y="417.24327" style="stroke: #000000; stroke-width: 0.8"/>
      </g>
     </g>
     <g id="text_3">
      <!-- 1.0 -->
      <g transform="translate(269.423944 431.841707) scale(0.1 -0.1)">
       <defs>
        <path id="DejaVuSans-31" d="M 794 531 
L 1825 531 
L 1825 4091 
L 703 3866 
L 703 4441 
L 1819 4666 
L 2450 4666 
L 2450 531 
L 3481 531 
L 3481 0 
L 794 0 
L 794 531 
z
" transform="scale(0.015625)"/>
       </defs>
       <use xlink:href="#DejaVuSans-31"/>
       <use xlink:href="#DejaVuSans-2e" transform="translate(63.623047 0)"/>
       <use xlink:href="#DejaVuSans-30" transform="translate(95.410156 0)"/>
      </g>
     </g>
    </g>
    <g id="xtick_4">
     <g id="line2d_7">
      <path d="M 359.09529 417.24327 
L 359.09529 43.803605 
" clip-path="url(#p54fabaebb1)" style="fill: none; stroke: #b0b0b0; stroke-opacity: 0.2; stroke-width: 0.8; stroke-linecap: square"/>
     </g>
     <g id="line2d_8">
      <g>
       <use xlink:href="#m9d370045f7" x="359.09529" y="417.24327" style="stroke: #000000; stroke-width: 0.8"/>
      </g>
     </g>
     <g id="text_4">
      <!-- 1.5 -->
      <g transform="translate(351.143728 431.841707) scale(0.1 -0.1)">
       <use xlink:href="#DejaVuSans-31"/>
       <use xlink:href="#DejaVuSans-2e" transform="translate(63.623047 0)"/>
       <use xlink:href="#DejaVuSans-35" transform="translate(95.410156 0)"/>
      </g>
     </g>
    </g>
    <g id="xtick_5">
     <g id="line2d_9">
      <path d="M 440.815075 417.24327 
L 440.815075 43.803605 
" clip-path="url(#p54fabaebb1)" style="fill: none; stroke: #b0b0b0; stroke-opacity: 0.2; stroke-width: 0.8; stroke-linecap: square"/>
     </g>
     <g id="line2d_10">
      <g>
       <use xlink:href="#m9d370045f7" x="440.815075" y="417.24327" style="stroke: #000000; stroke-width: 0.8"/>
      </g>
     </g>
     <g id="text_5">
      <!-- 2.0 -->
      <g transform="translate(432.863512 431.841707) scale(0.1 -0.1)">
       <defs>
        <path id="DejaVuSans-32" d="M 1228 531 
L 3431 531 
L 3431 0 
L 469 0 
L 469 531 
Q 828 903 1448 1529 
Q 2069 2156 2228 2338 
Q 2531 2678 2651 2914 
Q 2772 3150 2772 3378 
Q 2772 3750 2511 3984 
Q 2250 4219 1831 4219 
Q 1534 4219 1204 4116 
Q 875 4013 500 3803 
L 500 4441 
Q 881 4594 1212 4672 
Q 1544 4750 1819 4750 
Q 2544 4750 2975 4387 
Q 3406 4025 3406 3419 
Q 3406 3131 3298 2873 
Q 3191 2616 2906 2266 
Q 2828 2175 2409 1742 
Q 1991 1309 1228 531 
z
" transform="scale(0.015625)"/>
       </defs>
       <use xlink:href="#DejaVuSans-32"/>
       <use xlink:href="#DejaVuSans-2e" transform="translate(63.623047 0)"/>
       <use xlink:href="#DejaVuSans-30" transform="translate(95.410156 0)"/>
      </g>
     </g>
    </g>
    <g id="text_6">
     <!-- Cells (millions) -->
     <g transform="translate(271.447515 445.519832) scale(0.1 -0.1)">
      <defs>
       <path id="DejaVuSans-43" d="M 4122 4306 
L 4122 3641 
Q 3803 3938 3442 4084 
Q 3081 4231 2675 4231 
Q 1875 4231 1450 3742 
Q 1025 3253 1025 2328 
Q 1025 1406 1450 917 
Q 1875 428 2675 428 
Q 3081 428 3442 575 
Q 3803 722 4122 1019 
L 4122 359 
Q 3791 134 3420 21 
Q 3050 -91 2638 -91 
Q 1578 -91 968 557 
Q 359 1206 359 2328 
Q 359 3453 968 4101 
Q 1578 4750 2638 4750 
Q 3056 4750 3426 4639 
Q 3797 4528 4122 4306 
z
" transform="scale(0.015625)"/>
       <path id="DejaVuSans-65" d="M 3597 1894 
L 3597 1613 
L 953 1613 
Q 991 1019 1311 708 
Q 1631 397 2203 397 
Q 2534 397 2845 478 
Q 3156 559 3463 722 
L 3463 178 
Q 3153 47 2828 -22 
Q 2503 -91 2169 -91 
Q 1331 -91 842 396 
Q 353 884 353 1716 
Q 353 2575 817 3079 
Q 1281 3584 2069 3584 
Q 2775 3584 3186 3129 
Q 3597 2675 3597 1894 
z
M 3022 2063 
Q 3016 2534 2758 2815 
Q 2500 3097 2075 3097 
Q 1594 3097 1305 2825 
Q 1016 2553 972 2059 
L 3022 2063 
z
" transform="scale(0.015625)"/>
       <path id="DejaVuSans-6c" d="M 603 4863 
L 1178 4863 
L 1178 0 
L 603 0 
L 603 4863 
z
" transform="scale(0.015625)"/>
       <path id="DejaVuSans-73" d="M 2834 3397 
L 2834 2853 
Q 2591 2978 2328 3040 
Q 2066 3103 1784 3103 
Q 1356 3103 1142 2972 
Q 928 2841 928 2578 
Q 928 2378 1081 2264 
Q 1234 2150 1697 2047 
L 1894 2003 
Q 2506 1872 2764 1633 
Q 3022 1394 3022 966 
Q 3022 478 2636 193 
Q 2250 -91 1575 -91 
Q 1294 -91 989 -36 
Q 684 19 347 128 
L 347 722 
Q 666 556 975 473 
Q 1284 391 1588 391 
Q 1994 391 2212 530 
Q 2431 669 2431 922 
Q 2431 1156 2273 1281 
Q 2116 1406 1581 1522 
L 1381 1569 
Q 847 1681 609 1914 
Q 372 2147 372 2553 
Q 372 3047 722 3315 
Q 1072 3584 1716 3584 
Q 2034 3584 2315 3537 
Q 2597 3491 2834 3397 
z
" transform="scale(0.015625)"/>
       <path id="DejaVuSans-20" transform="scale(0.015625)"/>
       <path id="DejaVuSans-28" d="M 1984 4856 
Q 1566 4138 1362 3434 
Q 1159 2731 1159 2009 
Q 1159 1288 1364 580 
Q 1569 -128 1984 -844 
L 1484 -844 
Q 1016 -109 783 600 
Q 550 1309 550 2009 
Q 550 2706 781 3412 
Q 1013 4119 1484 4856 
L 1984 4856 
z
" transform="scale(0.015625)"/>
       <path id="DejaVuSans-6d" d="M 3328 2828 
Q 3544 3216 3844 3400 
Q 4144 3584 4550 3584 
Q 5097 3584 5394 3201 
Q 5691 2819 5691 2113 
L 5691 0 
L 5113 0 
L 5113 2094 
Q 5113 2597 4934 2840 
Q 4756 3084 4391 3084 
Q 3944 3084 3684 2787 
Q 3425 2491 3425 1978 
L 3425 0 
L 2847 0 
L 2847 2094 
Q 2847 2600 2669 2842 
Q 2491 3084 2119 3084 
Q 1678 3084 1418 2786 
Q 1159 2488 1159 1978 
L 1159 0 
L 581 0 
L 581 3500 
L 1159 3500 
L 1159 2956 
Q 1356 3278 1631 3431 
Q 1906 3584 2284 3584 
Q 2666 3584 2933 3390 
Q 3200 3197 3328 2828 
z
" transform="scale(0.015625)"/>
       <path id="DejaVuSans-69" d="M 603 3500 
L 1178 3500 
L 1178 0 
L 603 0 
L 603 3500 
z
M 603 4863 
L 1178 4863 
L 1178 4134 
L 603 4134 
L 603 4863 
z
" transform="scale(0.015625)"/>
       <path id="DejaVuSans-6f" d="M 1959 3097 
Q 1497 3097 1228 2736 
Q 959 2375 959 1747 
Q 959 1119 1226 758 
Q 1494 397 1959 397 
Q 2419 397 2687 759 
Q 2956 1122 2956 1747 
Q 2956 2369 2687 2733 
Q 2419 3097 1959 3097 
z
M 1959 3584 
Q 2709 3584 3137 3096 
Q 3566 2609 3566 1747 
Q 3566 888 3137 398 
Q 2709 -91 1959 -91 
Q 1206 -91 779 398 
Q 353 888 353 1747 
Q 353 2609 779 3096 
Q 1206 3584 1959 3584 
z
" transform="scale(0.015625)"/>
       <path id="DejaVuSans-6e" d="M 3513 2113 
L 3513 0 
L 2938 0 
L 2938 2094 
Q 2938 2591 2744 2837 
Q 2550 3084 2163 3084 
Q 1697 3084 1428 2787 
Q 1159 2491 1159 1978 
L 1159 0 
L 581 0 
L 581 3500 
L 1159 3500 
L 1159 2956 
Q 1366 3272 1645 3428 
Q 1925 3584 2291 3584 
Q 2894 3584 3203 3211 
Q 3513 2838 3513 2113 
z
" transform="scale(0.015625)"/>
       <path id="DejaVuSans-29" d="M 513 4856 
L 1013 4856 
Q 1481 4119 1714 3412 
Q 1947 2706 1947 2009 
Q 1947 1309 1714 600 
Q 1481 -109 1013 -844 
L 513 -844 
Q 928 -128 1133 580 
Q 1338 1288 1338 2009 
Q 1338 2731 1133 3434 
Q 928 4138 513 4856 
z
" transform="scale(0.015625)"/>
      </defs>
      <use xlink:href="#DejaVuSans-43"/>
      <use xlink:href="#DejaVuSans-65" transform="translate(69.824219 0)"/>
      <use xlink:href="#DejaVuSans-6c" transform="translate(131.347656 0)"/>
      <use xlink:href="#DejaVuSans-6c" transform="translate(159.130859 0)"/>
      <use xlink:href="#DejaVuSans-73" transform="translate(186.914062 0)"/>
      <use xlink:href="#DejaVuSans-20" transform="translate(239.013672 0)"/>
      <use xlink:href="#DejaVuSans-28" transform="translate(270.800781 0)"/>
      <use xlink:href="#DejaVuSans-6d" transform="translate(309.814453 0)"/>
      <use xlink:href="#DejaVuSans-69" transform="translate(407.226562 0)"/>
      <use xlink:href="#DejaVuSans-6c" transform="translate(435.009766 0)"/>
      <use xlink:href="#DejaVuSans-6c" transform="translate(462.792969 0)"/>
      <use xlink:href="#DejaVuSans-69" transform="translate(490.576172 0)"/>
      <use xlink:href="#DejaVuSans-6f" transform="translate(518.359375 0)"/>
      <use xlink:href="#DejaVuSans-6e" transform="translate(579.541016 0)"/>
      <use xlink:href="#DejaVuSans-73" transform="translate(642.919922 0)"/>
      <use xlink:href="#DejaVuSans-29" transform="translate(695.019531 0)"/>
     </g>
    </g>
   </g>
   <g id="matplotlib.axis_2">
    <g id="ytick_1">
     <g id="line2d_11">
      <defs>
       <path id="m100e245148" d="M 0 0 
L -3.5 0 
" style="stroke: #000000; stroke-width: 0.8"/>
      </defs>
      <g>
       <use xlink:href="#m100e245148" x="113.935938" y="89.069019" style="stroke: #000000; stroke-width: 0.8"/>
      </g>
     </g>
     <g id="text_7">
      <!-- RNA | snRNA12 -->
      <g transform="translate(30.398438 92.890113) scale(0.1 -0.1)">
       <defs>
        <path id="DejaVuSans-52" d="M 2841 2188 
Q 3044 2119 3236 1894 
Q 3428 1669 3622 1275 
L 4263 0 
L 3584 0 
L 2988 1197 
Q 2756 1666 2539 1819 
Q 2322 1972 1947 1972 
L 1259 1972 
L 1259 0 
L 628 0 
L 628 4666 
L 2053 4666 
Q 2853 4666 3247 4331 
Q 3641 3997 3641 3322 
Q 3641 2881 3436 2590 
Q 3231 2300 2841 2188 
z
M 1259 4147 
L 1259 2491 
L 2053 2491 
Q 2509 2491 2742 2702 
Q 2975 2913 2975 3322 
Q 2975 3731 2742 3939 
Q 2509 4147 2053 4147 
L 1259 4147 
z
" transform="scale(0.015625)"/>
        <path id="DejaVuSans-4e" d="M 628 4666 
L 1478 4666 
L 3547 763 
L 3547 4666 
L 4159 4666 
L 4159 0 
L 3309 0 
L 1241 3903 
L 1241 0 
L 628 0 
L 628 4666 
z
" transform="scale(0.015625)"/>
        <path id="DejaVuSans-41" d="M 2188 4044 
L 1331 1722 
L 3047 1722 
L 2188 4044 
z
M 1831 4666 
L 2547 4666 
L 4325 0 
L 3669 0 
L 3244 1197 
L 1141 1197 
L 716 0 
L 50 0 
L 1831 4666 
z
" transform="scale(0.015625)"/>
        <path id="DejaVuSans-7c" d="M 1344 4891 
L 1344 -1509 
L 813 -1509 
L 813 4891 
L 1344 4891 
z
" transform="scale(0.015625)"/>
       </defs>
       <use xlink:href="#DejaVuSans-52"/>
       <use xlink:href="#DejaVuSans-4e" transform="translate(69.482422 0)"/>
       <use xlink:href="#DejaVuSans-41" transform="translate(144.287109 0)"/>
       <use xlink:href="#DejaVuSans-20" transform="translate(212.695312 0)"/>
       <use xlink:href="#DejaVuSans-7c" transform="translate(244.482422 0)"/>
       <use xlink:href="#DejaVuSans-20" transform="translate(278.173828 0)"/>
       <use xlink:href="#DejaVuSans-73" transform="translate(309.960938 0)"/>
       <use xlink:href="#DejaVuSans-6e" transform="translate(362.060547 0)"/>
       <use xlink:href="#DejaVuSans-52" transform="translate(425.439453 0)"/>
       <use xlink:href="#DejaVuSans-4e" transform="translate(494.921875 0)"/>
       <use xlink:href="#DejaVuSans-41" transform="translate(569.726562 0)"/>
       <use xlink:href="#DejaVuSans-31" transform="translate(638.134766 0)"/>
       <use xlink:href="#DejaVuSans-32" transform="translate(701.757812 0)"/>
      </g>
     </g>
    </g>
    <g id="ytick_2">
     <g id="line2d_12">
      <g>
       <use xlink:href="#m100e245148" x="113.935938" y="159.796228" style="stroke: #000000; stroke-width: 0.8"/>
      </g>
     </g>
     <g id="text_8">
      <!-- RNA | Full metadata -->
      <g transform="translate(7.2 163.617322) scale(0.1 -0.1)">
       <defs>
        <path id="DejaVuSans-46" d="M 628 4666 
L 3309 4666 
L 3309 4134 
L 1259 4134 
L 1259 2759 
L 3109 2759 
L 3109 2228 
L 1259 2228 
L 1259 0 
L 628 0 
L 628 4666 
z
" transform="scale(0.015625)"/>
        <path id="DejaVuSans-75" d="M 544 1381 
L 544 3500 
L 1119 3500 
L 1119 1403 
Q 1119 906 1312 657 
Q 1506 409 1894 409 
Q 2359 409 2629 706 
Q 2900 1003 2900 1516 
L 2900 3500 
L 3475 3500 
L 3475 0 
L 2900 0 
L 2900 538 
Q 2691 219 2414 64 
Q 2138 -91 1772 -91 
Q 1169 -91 856 284 
Q 544 659 544 1381 
z
M 1991 3584 
L 1991 3584 
z
" transform="scale(0.015625)"/>
        <path id="DejaVuSans-74" d="M 1172 4494 
L 1172 3500 
L 2356 3500 
L 2356 3053 
L 1172 3053 
L 1172 1153 
Q 1172 725 1289 603 
Q 1406 481 1766 481 
L 2356 481 
L 2356 0 
L 1766 0 
Q 1100 0 847 248 
Q 594 497 594 1153 
L 594 3053 
L 172 3053 
L 172 3500 
L 594 3500 
L 594 4494 
L 1172 4494 
z
" transform="scale(0.015625)"/>
        <path id="DejaVuSans-61" d="M 2194 1759 
Q 1497 1759 1228 1600 
Q 959 1441 959 1056 
Q 959 750 1161 570 
Q 1363 391 1709 391 
Q 2188 391 2477 730 
Q 2766 1069 2766 1631 
L 2766 1759 
L 2194 1759 
z
M 3341 1997 
L 3341 0 
L 2766 0 
L 2766 531 
Q 2569 213 2275 61 
Q 1981 -91 1556 -91 
Q 1019 -91 701 211 
Q 384 513 384 1019 
Q 384 1609 779 1909 
Q 1175 2209 1959 2209 
L 2766 2209 
L 2766 2266 
Q 2766 2663 2505 2880 
Q 2244 3097 1772 3097 
Q 1472 3097 1187 3025 
Q 903 2953 641 2809 
L 641 3341 
Q 956 3463 1253 3523 
Q 1550 3584 1831 3584 
Q 2591 3584 2966 3190 
Q 3341 2797 3341 1997 
z
" transform="scale(0.015625)"/>
        <path id="DejaVuSans-64" d="M 2906 2969 
L 2906 4863 
L 3481 4863 
L 3481 0 
L 2906 0 
L 2906 525 
Q 2725 213 2448 61 
Q 2172 -91 1784 -91 
Q 1150 -91 751 415 
Q 353 922 353 1747 
Q 353 2572 751 3078 
Q 1150 3584 1784 3584 
Q 2172 3584 2448 3432 
Q 2725 3281 2906 2969 
z
M 947 1747 
Q 947 1113 1208 752 
Q 1469 391 1925 391 
Q 2381 391 2643 752 
Q 2906 1113 2906 1747 
Q 2906 2381 2643 2742 
Q 2381 3103 1925 3103 
Q 1469 3103 1208 2742 
Q 947 2381 947 1747 
z
" transform="scale(0.015625)"/>
       </defs>
       <use xlink:href="#DejaVuSans-52"/>
       <use xlink:href="#DejaVuSans-4e" transform="translate(69.482422 0)"/>
       <use xlink:href="#DejaVuSans-41" transform="translate(144.287109 0)"/>
       <use xlink:href="#DejaVuSans-20" transform="translate(212.695312 0)"/>
       <use xlink:href="#DejaVuSans-7c" transform="translate(244.482422 0)"/>
       <use xlink:href="#DejaVuSans-20" transform="translate(278.173828 0)"/>
       <use xlink:href="#DejaVuSans-46" transform="translate(309.960938 0)"/>
       <use xlink:href="#DejaVuSans-75" transform="translate(361.980469 0)"/>
       <use xlink:href="#DejaVuSans-6c" transform="translate(425.359375 0)"/>
       <use xlink:href="#DejaVuSans-6c" transform="translate(453.142578 0)"/>
       <use xlink:href="#DejaVuSans-20" transform="translate(480.925781 0)"/>
       <use xlink:href="#DejaVuSans-6d" transform="translate(512.712891 0)"/>
       <use xlink:href="#DejaVuSans-65" transform="translate(610.125 0)"/>
       <use xlink:href="#DejaVuSans-74" transform="translate(671.648438 0)"/>
       <use xlink:href="#DejaVuSans-61" transform="translate(710.857422 0)"/>
       <use xlink:href="#DejaVuSans-64" transform="translate(772.136719 0)"/>
       <use xlink:href="#DejaVuSans-61" transform="translate(835.613281 0)"/>
       <use xlink:href="#DejaVuSans-74" transform="translate(896.892578 0)"/>
       <use xlink:href="#DejaVuSans-61" transform="translate(936.101562 0)"/>
      </g>
     </g>
    </g>
    <g id="ytick_3">
     <g id="line2d_13">
      <g>
       <use xlink:href="#m100e245148" x="113.935938" y="230.523438" style="stroke: #000000; stroke-width: 0.8"/>
      </g>
     </g>
     <g id="text_9">
      <!-- ATAC | ROSMAP -->
      <g transform="translate(29.496875 234.344531) scale(0.1 -0.1)">
       <defs>
        <path id="DejaVuSans-54" d="M -19 4666 
L 3928 4666 
L 3928 4134 
L 2272 4134 
L 2272 0 
L 1638 0 
L 1638 4134 
L -19 4134 
L -19 4666 
z
" transform="scale(0.015625)"/>
        <path id="DejaVuSans-4f" d="M 2522 4238 
Q 1834 4238 1429 3725 
Q 1025 3213 1025 2328 
Q 1025 1447 1429 934 
Q 1834 422 2522 422 
Q 3209 422 3611 934 
Q 4013 1447 4013 2328 
Q 4013 3213 3611 3725 
Q 3209 4238 2522 4238 
z
M 2522 4750 
Q 3503 4750 4090 4092 
Q 4678 3434 4678 2328 
Q 4678 1225 4090 567 
Q 3503 -91 2522 -91 
Q 1538 -91 948 565 
Q 359 1222 359 2328 
Q 359 3434 948 4092 
Q 1538 4750 2522 4750 
z
" transform="scale(0.015625)"/>
        <path id="DejaVuSans-53" d="M 3425 4513 
L 3425 3897 
Q 3066 4069 2747 4153 
Q 2428 4238 2131 4238 
Q 1616 4238 1336 4038 
Q 1056 3838 1056 3469 
Q 1056 3159 1242 3001 
Q 1428 2844 1947 2747 
L 2328 2669 
Q 3034 2534 3370 2195 
Q 3706 1856 3706 1288 
Q 3706 609 3251 259 
Q 2797 -91 1919 -91 
Q 1588 -91 1214 -16 
Q 841 59 441 206 
L 441 856 
Q 825 641 1194 531 
Q 1563 422 1919 422 
Q 2459 422 2753 634 
Q 3047 847 3047 1241 
Q 3047 1584 2836 1778 
Q 2625 1972 2144 2069 
L 1759 2144 
Q 1053 2284 737 2584 
Q 422 2884 422 3419 
Q 422 4038 858 4394 
Q 1294 4750 2059 4750 
Q 2388 4750 2728 4690 
Q 3069 4631 3425 4513 
z
" transform="scale(0.015625)"/>
        <path id="DejaVuSans-4d" d="M 628 4666 
L 1569 4666 
L 2759 1491 
L 3956 4666 
L 4897 4666 
L 4897 0 
L 4281 0 
L 4281 4097 
L 3078 897 
L 2444 897 
L 1241 4097 
L 1241 0 
L 628 0 
L 628 4666 
z
" transform="scale(0.015625)"/>
        <path id="DejaVuSans-50" d="M 1259 4147 
L 1259 2394 
L 2053 2394 
Q 2494 2394 2734 2622 
Q 2975 2850 2975 3272 
Q 2975 3691 2734 3919 
Q 2494 4147 2053 4147 
L 1259 4147 
z
M 628 4666 
L 2053 4666 
Q 2838 4666 3239 4311 
Q 3641 3956 3641 3272 
Q 3641 2581 3239 2228 
Q 2838 1875 2053 1875 
L 1259 1875 
L 1259 0 
L 628 0 
L 628 4666 
z
" transform="scale(0.015625)"/>
       </defs>
       <use xlink:href="#DejaVuSans-41"/>
       <use xlink:href="#DejaVuSans-54" transform="translate(60.658203 0)"/>
       <use xlink:href="#DejaVuSans-41" transform="translate(113.992188 0)"/>
       <use xlink:href="#DejaVuSans-43" transform="translate(180.650391 0)"/>
       <use xlink:href="#DejaVuSans-20" transform="translate(250.474609 0)"/>
       <use xlink:href="#DejaVuSans-7c" transform="translate(282.261719 0)"/>
       <use xlink:href="#DejaVuSans-20" transform="translate(315.953125 0)"/>
       <use xlink:href="#DejaVuSans-52" transform="translate(347.740234 0)"/>
       <use xlink:href="#DejaVuSans-4f" transform="translate(417.222656 0)"/>
       <use xlink:href="#DejaVuSans-53" transform="translate(495.933594 0)"/>
       <use xlink:href="#DejaVuSans-4d" transform="translate(559.410156 0)"/>
       <use xlink:href="#DejaVuSans-41" transform="translate(645.689453 0)"/>
       <use xlink:href="#DejaVuSans-50" transform="translate(714.097656 0)"/>
      </g>
     </g>
    </g>
    <g id="ytick_4">
     <g id="line2d_14">
      <g>
       <use xlink:href="#m100e245148" x="113.935938" y="301.250647" style="stroke: #000000; stroke-width: 0.8"/>
      </g>
     </g>
     <g id="text_10">
      <!-- ATAC | Li -->
      <g transform="translate(63.814063 305.071741) scale(0.1 -0.1)">
       <defs>
        <path id="DejaVuSans-4c" d="M 628 4666 
L 1259 4666 
L 1259 531 
L 3531 531 
L 3531 0 
L 628 0 
L 628 4666 
z
" transform="scale(0.015625)"/>
       </defs>
       <use xlink:href="#DejaVuSans-41"/>
       <use xlink:href="#DejaVuSans-54" transform="translate(60.658203 0)"/>
       <use xlink:href="#DejaVuSans-41" transform="translate(113.992188 0)"/>
       <use xlink:href="#DejaVuSans-43" transform="translate(180.650391 0)"/>
       <use xlink:href="#DejaVuSans-20" transform="translate(250.474609 0)"/>
       <use xlink:href="#DejaVuSans-7c" transform="translate(282.261719 0)"/>
       <use xlink:href="#DejaVuSans-20" transform="translate(315.953125 0)"/>
       <use xlink:href="#DejaVuSans-4c" transform="translate(347.740234 0)"/>
       <use xlink:href="#DejaVuSans-69" transform="translate(403.453125 0)"/>
      </g>
     </g>
    </g>
    <g id="ytick_5">
     <g id="line2d_15">
      <g>
       <use xlink:href="#m100e245148" x="113.935938" y="371.977856" style="stroke: #000000; stroke-width: 0.8"/>
      </g>
     </g>
     <g id="text_11">
      <!-- ATAC | Mannens -->
      <g transform="translate(27.032813 375.79895) scale(0.1 -0.1)">
       <use xlink:href="#DejaVuSans-41"/>
       <use xlink:href="#DejaVuSans-54" transform="translate(60.658203 0)"/>
       <use xlink:href="#DejaVuSans-41" transform="translate(113.992188 0)"/>
       <use xlink:href="#DejaVuSans-43" transform="translate(180.650391 0)"/>
       <use xlink:href="#DejaVuSans-20" transform="translate(250.474609 0)"/>
       <use xlink:href="#DejaVuSans-7c" transform="translate(282.261719 0)"/>
       <use xlink:href="#DejaVuSans-20" transform="translate(315.953125 0)"/>
       <use xlink:href="#DejaVuSans-4d" transform="translate(347.740234 0)"/>
       <use xlink:href="#DejaVuSans-61" transform="translate(434.019531 0)"/>
       <use xlink:href="#DejaVuSans-6e" transform="translate(495.298828 0)"/>
       <use xlink:href="#DejaVuSans-6e" transform="translate(558.677734 0)"/>
       <use xlink:href="#DejaVuSans-65" transform="translate(622.056641 0)"/>
       <use xlink:href="#DejaVuSans-6e" transform="translate(683.580078 0)"/>
       <use xlink:href="#DejaVuSans-73" transform="translate(746.958984 0)"/>
      </g>
     </g>
    </g>
   </g>
   <g id="patch_8">
    <path d="M 113.935938 417.24327 
L 113.935938 43.803605 
" style="fill: none; stroke: #000000; stroke-width: 0.8; stroke-linejoin: miter; stroke-linecap: square"/>
   </g>
   <g id="patch_9">
    <path d="M 502.360655 417.24327 
L 502.360655 43.803605 
" style="fill: none; stroke: #000000; stroke-width: 0.8; stroke-linejoin: miter; stroke-linecap: square"/>
   </g>
   <g id="patch_10">
    <path d="M 113.935938 417.24327 
L 502.360655 417.24327 
" style="fill: none; stroke: #000000; stroke-width: 0.8; stroke-linejoin: miter; stroke-linecap: square"/>
   </g>
   <g id="patch_11">
    <path d="M 113.935938 43.803605 
L 502.360655 43.803605 
" style="fill: none; stroke: #000000; stroke-width: 0.8; stroke-linejoin: miter; stroke-linecap: square"/>
   </g>
   <g id="text_12">
    <!-- 2.26M -->
    <g transform="translate(488.767427 91.828394) scale(0.1 -0.1)">
     <defs>
      <path id="DejaVuSans-36" d="M 2113 2584 
Q 1688 2584 1439 2293 
Q 1191 2003 1191 1497 
Q 1191 994 1439 701 
Q 1688 409 2113 409 
Q 2538 409 2786 701 
Q 3034 994 3034 1497 
Q 3034 2003 2786 2293 
Q 2538 2584 2113 2584 
z
M 3366 4563 
L 3366 3988 
Q 3128 4100 2886 4159 
Q 2644 4219 2406 4219 
Q 1781 4219 1451 3797 
Q 1122 3375 1075 2522 
Q 1259 2794 1537 2939 
Q 1816 3084 2150 3084 
Q 2853 3084 3261 2657 
Q 3669 2231 3669 1497 
Q 3669 778 3244 343 
Q 2819 -91 2113 -91 
Q 1303 -91 875 529 
Q 447 1150 447 2328 
Q 447 3434 972 4092 
Q 1497 4750 2381 4750 
Q 2619 4750 2861 4703 
Q 3103 4656 3366 4563 
z
" transform="scale(0.015625)"/>
     </defs>
     <use xlink:href="#DejaVuSans-32"/>
     <use xlink:href="#DejaVuSans-2e" transform="translate(63.623047 0)"/>
     <use xlink:href="#DejaVuSans-32" transform="translate(95.410156 0)"/>
     <use xlink:href="#DejaVuSans-36" transform="translate(159.033203 0)"/>
     <use xlink:href="#DejaVuSans-4d" transform="translate(222.65625 0)"/>
    </g>
   </g>
   <g id="text_13">
    <!-- 1.54M -->
    <g transform="translate(371.204038 162.555603) scale(0.1 -0.1)">
     <defs>
      <path id="DejaVuSans-34" d="M 2419 4116 
L 825 1625 
L 2419 1625 
L 2419 4116 
z
M 2253 4666 
L 3047 4666 
L 3047 1625 
L 3713 1625 
L 3713 1100 
L 3047 1100 
L 3047 0 
L 2419 0 
L 2419 1100 
L 313 1100 
L 313 1709 
L 2253 4666 
z
" transform="scale(0.015625)"/>
     </defs>
     <use xlink:href="#DejaVuSans-31"/>
     <use xlink:href="#DejaVuSans-2e" transform="translate(63.623047 0)"/>
     <use xlink:href="#DejaVuSans-35" transform="translate(95.410156 0)"/>
     <use xlink:href="#DejaVuSans-34" transform="translate(159.033203 0)"/>
     <use xlink:href="#DejaVuSans-4d" transform="translate(222.65625 0)"/>
    </g>
   </g>
   <g id="text_14">
    <!-- 1.22M -->
    <g transform="translate(317.772047 233.282813) scale(0.1 -0.1)">
     <use xlink:href="#DejaVuSans-31"/>
     <use xlink:href="#DejaVuSans-2e" transform="translate(63.623047 0)"/>
     <use xlink:href="#DejaVuSans-32" transform="translate(95.410156 0)"/>
     <use xlink:href="#DejaVuSans-32" transform="translate(159.033203 0)"/>
     <use xlink:href="#DejaVuSans-4d" transform="translate(222.65625 0)"/>
    </g>
   </g>
   <g id="text_15">
    <!-- 1.13M -->
    <g transform="translate(304.238434 304.010022) scale(0.1 -0.1)">
     <defs>
      <path id="DejaVuSans-33" d="M 2597 2516 
Q 3050 2419 3304 2112 
Q 3559 1806 3559 1356 
Q 3559 666 3084 287 
Q 2609 -91 1734 -91 
Q 1441 -91 1130 -33 
Q 819 25 488 141 
L 488 750 
Q 750 597 1062 519 
Q 1375 441 1716 441 
Q 2309 441 2620 675 
Q 2931 909 2931 1356 
Q 2931 1769 2642 2001 
Q 2353 2234 1838 2234 
L 1294 2234 
L 1294 2753 
L 1863 2753 
Q 2328 2753 2575 2939 
Q 2822 3125 2822 3475 
Q 2822 3834 2567 4026 
Q 2313 4219 1838 4219 
Q 1578 4219 1281 4162 
Q 984 4106 628 3988 
L 628 4550 
Q 988 4650 1302 4700 
Q 1616 4750 1894 4750 
Q 2613 4750 3031 4423 
Q 3450 4097 3450 3541 
Q 3450 3153 3228 2886 
Q 3006 2619 2597 2516 
z
" transform="scale(0.015625)"/>
     </defs>
     <use xlink:href="#DejaVuSans-31"/>
     <use xlink:href="#DejaVuSans-2e" transform="translate(63.623047 0)"/>
     <use xlink:href="#DejaVuSans-31" transform="translate(95.410156 0)"/>
     <use xlink:href="#DejaVuSans-33" transform="translate(159.033203 0)"/>
     <use xlink:href="#DejaVuSans-4d" transform="translate(222.65625 0)"/>
    </g>
   </g>
   <g id="text_16">
    <!-- 0.53M -->
    <g transform="translate(204.823701 374.737231) scale(0.1 -0.1)">
     <use xlink:href="#DejaVuSans-30"/>
     <use xlink:href="#DejaVuSans-2e" transform="translate(63.623047 0)"/>
     <use xlink:href="#DejaVuSans-35" transform="translate(95.410156 0)"/>
     <use xlink:href="#DejaVuSans-33" transform="translate(159.033203 0)"/>
     <use xlink:href="#DejaVuSans-4d" transform="translate(222.65625 0)"/>
    </g>
   </g>
   <g id="text_17">
    <!-- Projected external datasets -->
    <g transform="translate(225.807671 37.803605) scale(0.12 -0.12)">
     <defs>
      <path id="DejaVuSans-72" d="M 2631 2963 
Q 2534 3019 2420 3045 
Q 2306 3072 2169 3072 
Q 1681 3072 1420 2755 
Q 1159 2438 1159 1844 
L 1159 0 
L 581 0 
L 581 3500 
L 1159 3500 
L 1159 2956 
Q 1341 3275 1631 3429 
Q 1922 3584 2338 3584 
Q 2397 3584 2469 3576 
Q 2541 3569 2628 3553 
L 2631 2963 
z
" transform="scale(0.015625)"/>
      <path id="DejaVuSans-6a" d="M 603 3500 
L 1178 3500 
L 1178 -63 
Q 1178 -731 923 -1031 
Q 669 -1331 103 -1331 
L -116 -1331 
L -116 -844 
L 38 -844 
Q 366 -844 484 -692 
Q 603 -541 603 -63 
L 603 3500 
z
M 603 4863 
L 1178 4863 
L 1178 4134 
L 603 4134 
L 603 4863 
z
" transform="scale(0.015625)"/>
      <path id="DejaVuSans-63" d="M 3122 3366 
L 3122 2828 
Q 2878 2963 2633 3030 
Q 2388 3097 2138 3097 
Q 1578 3097 1268 2742 
Q 959 2388 959 1747 
Q 959 1106 1268 751 
Q 1578 397 2138 397 
Q 2388 397 2633 464 
Q 2878 531 3122 666 
L 3122 134 
Q 2881 22 2623 -34 
Q 2366 -91 2075 -91 
Q 1284 -91 818 406 
Q 353 903 353 1747 
Q 353 2603 823 3093 
Q 1294 3584 2113 3584 
Q 2378 3584 2631 3529 
Q 2884 3475 3122 3366 
z
" transform="scale(0.015625)"/>
      <path id="DejaVuSans-78" d="M 3513 3500 
L 2247 1797 
L 3578 0 
L 2900 0 
L 1881 1375 
L 863 0 
L 184 0 
L 1544 1831 
L 300 3500 
L 978 3500 
L 1906 2253 
L 2834 3500 
L 3513 3500 
z
" transform="scale(0.015625)"/>
     </defs>
     <use xlink:href="#DejaVuSans-50"/>
     <use xlink:href="#DejaVuSans-72" transform="translate(58.552734 0)"/>
     <use xlink:href="#DejaVuSans-6f" transform="translate(97.416016 0)"/>
     <use xlink:href="#DejaVuSans-6a" transform="translate(158.597656 0)"/>
     <use xlink:href="#DejaVuSans-65" transform="translate(186.380859 0)"/>
     <use xlink:href="#DejaVuSans-63" transform="translate(247.904297 0)"/>
     <use xlink:href="#DejaVuSans-74" transform="translate(302.884766 0)"/>
     <use xlink:href="#DejaVuSans-65" transform="translate(342.09375 0)"/>
     <use xlink:href="#DejaVuSans-64" transform="translate(403.617188 0)"/>
     <use xlink:href="#DejaVuSans-20" transform="translate(467.09375 0)"/>
     <use xlink:href="#DejaVuSans-65" transform="translate(498.880859 0)"/>
     <use xlink:href="#DejaVuSans-78" transform="translate(558.654297 0)"/>
     <use xlink:href="#DejaVuSans-74" transform="translate(617.833984 0)"/>
     <use xlink:href="#DejaVuSans-65" transform="translate(657.042969 0)"/>
     <use xlink:href="#DejaVuSans-72" transform="translate(718.566406 0)"/>
     <use xlink:href="#DejaVuSans-6e" transform="translate(757.929688 0)"/>
     <use xlink:href="#DejaVuSans-61" transform="translate(821.308594 0)"/>
     <use xlink:href="#DejaVuSans-6c" transform="translate(882.587891 0)"/>
     <use xlink:href="#DejaVuSans-20" transform="translate(910.371094 0)"/>
     <use xlink:href="#DejaVuSans-64" transform="translate(942.158203 0)"/>
     <use xlink:href="#DejaVuSans-61" transform="translate(1005.634766 0)"/>
     <use xlink:href="#DejaVuSans-74" transform="translate(1066.914062 0)"/>
     <use xlink:href="#DejaVuSans-61" transform="translate(1106.123047 0)"/>
     <use xlink:href="#DejaVuSans-73" transform="translate(1167.402344 0)"/>
     <use xlink:href="#DejaVuSans-65" transform="translate(1219.501953 0)"/>
     <use xlink:href="#DejaVuSans-74" transform="translate(1281.025391 0)"/>
     <use xlink:href="#DejaVuSans-73" transform="translate(1320.234375 0)"/>
    </g>
   </g>
  </g>
  <g id="axes_2">
   <g id="patch_12">
    <path d="M 637.053334 417.24327 
L 1025.478051 417.24327 
L 1025.478051 43.803605 
L 637.053334 43.803605 
z
" style="fill: #ffffff"/>
   </g>
   <g id="patch_13">
    <path d="M -2692.301387 60.778135 
L 1006.981636 60.778135 
L 1006.981636 117.359903 
L -2692.301387 117.359903 
z
" clip-path="url(#p047871b9dd)" style="fill: #1f77b4; opacity: 0.92"/>
   </g>
   <g id="patch_14">
    <path d="M -2692.301387 131.505345 
L 918.4734 131.505345 
L 918.4734 188.087112 
L -2692.301387 188.087112 
z
" clip-path="url(#p047871b9dd)" style="fill: #1f77b4; opacity: 0.92"/>
   </g>
   <g id="patch_15">
    <path d="M -2692.301387 202.232554 
L 978.080988 202.232554 
L 978.080988 258.814321 
L -2692.301387 258.814321 
z
" clip-path="url(#p047871b9dd)" style="fill: #d62728; opacity: 0.92"/>
   </g>
   <g id="patch_16">
    <path d="M -2692.301387 272.959763 
L 848.931214 272.959763 
L 848.931214 329.54153 
L -2692.301387 329.54153 
z
" clip-path="url(#p047871b9dd)" style="fill: #d62728; opacity: 0.92"/>
   </g>
   <g id="patch_17">
    <path d="M -2692.301387 343.686972 
L 1003.369055 343.686972 
L 1003.369055 400.26874 
L -2692.301387 400.26874 
z
" clip-path="url(#p047871b9dd)" style="fill: #d62728; opacity: 0.92"/>
   </g>
   <g id="matplotlib.axis_3">
    <g id="xtick_6">
     <g id="line2d_16">
      <path d="M 637.053334 417.24327 
L 637.053334 43.803605 
" clip-path="url(#p047871b9dd)" style="fill: none; stroke: #b0b0b0; stroke-opacity: 0.2; stroke-width: 0.8; stroke-linecap: square"/>
     </g>
     <g id="line2d_17">
      <g>
       <use xlink:href="#m9d370045f7" x="637.053334" y="417.24327" style="stroke: #000000; stroke-width: 0.8"/>
      </g>
     </g>
     <g id="text_18">
      <!-- 90 -->
      <g transform="translate(630.690834 431.841707) scale(0.1 -0.1)">
       <defs>
        <path id="DejaVuSans-39" d="M 703 97 
L 703 672 
Q 941 559 1184 500 
Q 1428 441 1663 441 
Q 2288 441 2617 861 
Q 2947 1281 2994 2138 
Q 2813 1869 2534 1725 
Q 2256 1581 1919 1581 
Q 1219 1581 811 2004 
Q 403 2428 403 3163 
Q 403 3881 828 4315 
Q 1253 4750 1959 4750 
Q 2769 4750 3195 4129 
Q 3622 3509 3622 2328 
Q 3622 1225 3098 567 
Q 2575 -91 1691 -91 
Q 1453 -91 1209 -44 
Q 966 3 703 97 
z
M 1959 2075 
Q 2384 2075 2632 2365 
Q 2881 2656 2881 3163 
Q 2881 3666 2632 3958 
Q 2384 4250 1959 4250 
Q 1534 4250 1286 3958 
Q 1038 3666 1038 3163 
Q 1038 2656 1286 2365 
Q 1534 2075 1959 2075 
z
" transform="scale(0.015625)"/>
       </defs>
       <use xlink:href="#DejaVuSans-39"/>
       <use xlink:href="#DejaVuSans-30" transform="translate(63.623047 0)"/>
      </g>
     </g>
    </g>
    <g id="xtick_7">
     <g id="line2d_18">
      <path d="M 711.038994 417.24327 
L 711.038994 43.803605 
" clip-path="url(#p047871b9dd)" style="fill: none; stroke: #b0b0b0; stroke-opacity: 0.2; stroke-width: 0.8; stroke-linecap: square"/>
     </g>
     <g id="line2d_19">
      <g>
       <use xlink:href="#m9d370045f7" x="711.038994" y="417.24327" style="stroke: #000000; stroke-width: 0.8"/>
      </g>
     </g>
     <g id="text_19">
      <!-- 92 -->
      <g transform="translate(704.676494 431.841707) scale(0.1 -0.1)">
       <use xlink:href="#DejaVuSans-39"/>
       <use xlink:href="#DejaVuSans-32" transform="translate(63.623047 0)"/>
      </g>
     </g>
    </g>
    <g id="xtick_8">
     <g id="line2d_20">
      <path d="M 785.024655 417.24327 
L 785.024655 43.803605 
" clip-path="url(#p047871b9dd)" style="fill: none; stroke: #b0b0b0; stroke-opacity: 0.2; stroke-width: 0.8; stroke-linecap: square"/>
     </g>
     <g id="line2d_21">
      <g>
       <use xlink:href="#m9d370045f7" x="785.024655" y="417.24327" style="stroke: #000000; stroke-width: 0.8"/>
      </g>
     </g>
     <g id="text_20">
      <!-- 94 -->
      <g transform="translate(778.662155 431.841707) scale(0.1 -0.1)">
       <use xlink:href="#DejaVuSans-39"/>
       <use xlink:href="#DejaVuSans-34" transform="translate(63.623047 0)"/>
      </g>
     </g>
    </g>
    <g id="xtick_9">
     <g id="line2d_22">
      <path d="M 859.010315 417.24327 
L 859.010315 43.803605 
" clip-path="url(#p047871b9dd)" style="fill: none; stroke: #b0b0b0; stroke-opacity: 0.2; stroke-width: 0.8; stroke-linecap: square"/>
     </g>
     <g id="line2d_23">
      <g>
       <use xlink:href="#m9d370045f7" x="859.010315" y="417.24327" style="stroke: #000000; stroke-width: 0.8"/>
      </g>
     </g>
     <g id="text_21">
      <!-- 96 -->
      <g transform="translate(852.647815 431.841707) scale(0.1 -0.1)">
       <use xlink:href="#DejaVuSans-39"/>
       <use xlink:href="#DejaVuSans-36" transform="translate(63.623047 0)"/>
      </g>
     </g>
    </g>
    <g id="xtick_10">
     <g id="line2d_24">
      <path d="M 932.995976 417.24327 
L 932.995976 43.803605 
" clip-path="url(#p047871b9dd)" style="fill: none; stroke: #b0b0b0; stroke-opacity: 0.2; stroke-width: 0.8; stroke-linecap: square"/>
     </g>
     <g id="line2d_25">
      <g>
       <use xlink:href="#m9d370045f7" x="932.995976" y="417.24327" style="stroke: #000000; stroke-width: 0.8"/>
      </g>
     </g>
     <g id="text_22">
      <!-- 98 -->
      <g transform="translate(926.633476 431.841707) scale(0.1 -0.1)">
       <defs>
        <path id="DejaVuSans-38" d="M 2034 2216 
Q 1584 2216 1326 1975 
Q 1069 1734 1069 1313 
Q 1069 891 1326 650 
Q 1584 409 2034 409 
Q 2484 409 2743 651 
Q 3003 894 3003 1313 
Q 3003 1734 2745 1975 
Q 2488 2216 2034 2216 
z
M 1403 2484 
Q 997 2584 770 2862 
Q 544 3141 544 3541 
Q 544 4100 942 4425 
Q 1341 4750 2034 4750 
Q 2731 4750 3128 4425 
Q 3525 4100 3525 3541 
Q 3525 3141 3298 2862 
Q 3072 2584 2669 2484 
Q 3125 2378 3379 2068 
Q 3634 1759 3634 1313 
Q 3634 634 3220 271 
Q 2806 -91 2034 -91 
Q 1263 -91 848 271 
Q 434 634 434 1313 
Q 434 1759 690 2068 
Q 947 2378 1403 2484 
z
M 1172 3481 
Q 1172 3119 1398 2916 
Q 1625 2713 2034 2713 
Q 2441 2713 2670 2916 
Q 2900 3119 2900 3481 
Q 2900 3844 2670 4047 
Q 2441 4250 2034 4250 
Q 1625 4250 1398 4047 
Q 1172 3844 1172 3481 
z
" transform="scale(0.015625)"/>
       </defs>
       <use xlink:href="#DejaVuSans-39"/>
       <use xlink:href="#DejaVuSans-38" transform="translate(63.623047 0)"/>
      </g>
     </g>
    </g>
    <g id="xtick_11">
     <g id="line2d_26">
      <path d="M 1006.981636 417.24327 
L 1006.981636 43.803605 
" clip-path="url(#p047871b9dd)" style="fill: none; stroke: #b0b0b0; stroke-opacity: 0.2; stroke-width: 0.8; stroke-linecap: square"/>
     </g>
     <g id="line2d_27">
      <g>
       <use xlink:href="#m9d370045f7" x="1006.981636" y="417.24327" style="stroke: #000000; stroke-width: 0.8"/>
      </g>
     </g>
     <g id="text_23">
      <!-- 100 -->
      <g transform="translate(997.437886 431.841707) scale(0.1 -0.1)">
       <use xlink:href="#DejaVuSans-31"/>
       <use xlink:href="#DejaVuSans-30" transform="translate(63.623047 0)"/>
       <use xlink:href="#DejaVuSans-30" transform="translate(127.246094 0)"/>
      </g>
     </g>
    </g>
    <g id="text_24">
     <!-- Matched Wang feature-space coverage (%) -->
     <g transform="translate(722.981318 445.519832) scale(0.1 -0.1)">
      <defs>
       <path id="DejaVuSans-68" d="M 3513 2113 
L 3513 0 
L 2938 0 
L 2938 2094 
Q 2938 2591 2744 2837 
Q 2550 3084 2163 3084 
Q 1697 3084 1428 2787 
Q 1159 2491 1159 1978 
L 1159 0 
L 581 0 
L 581 4863 
L 1159 4863 
L 1159 2956 
Q 1366 3272 1645 3428 
Q 1925 3584 2291 3584 
Q 2894 3584 3203 3211 
Q 3513 2838 3513 2113 
z
" transform="scale(0.015625)"/>
       <path id="DejaVuSans-57" d="M 213 4666 
L 850 4666 
L 1831 722 
L 2809 4666 
L 3519 4666 
L 4500 722 
L 5478 4666 
L 6119 4666 
L 4947 0 
L 4153 0 
L 3169 4050 
L 2175 0 
L 1381 0 
L 213 4666 
z
" transform="scale(0.015625)"/>
       <path id="DejaVuSans-67" d="M 2906 1791 
Q 2906 2416 2648 2759 
Q 2391 3103 1925 3103 
Q 1463 3103 1205 2759 
Q 947 2416 947 1791 
Q 947 1169 1205 825 
Q 1463 481 1925 481 
Q 2391 481 2648 825 
Q 2906 1169 2906 1791 
z
M 3481 434 
Q 3481 -459 3084 -895 
Q 2688 -1331 1869 -1331 
Q 1566 -1331 1297 -1286 
Q 1028 -1241 775 -1147 
L 775 -588 
Q 1028 -725 1275 -790 
Q 1522 -856 1778 -856 
Q 2344 -856 2625 -561 
Q 2906 -266 2906 331 
L 2906 616 
Q 2728 306 2450 153 
Q 2172 0 1784 0 
Q 1141 0 747 490 
Q 353 981 353 1791 
Q 353 2603 747 3093 
Q 1141 3584 1784 3584 
Q 2172 3584 2450 3431 
Q 2728 3278 2906 2969 
L 2906 3500 
L 3481 3500 
L 3481 434 
z
" transform="scale(0.015625)"/>
       <path id="DejaVuSans-66" d="M 2375 4863 
L 2375 4384 
L 1825 4384 
Q 1516 4384 1395 4259 
Q 1275 4134 1275 3809 
L 1275 3500 
L 2222 3500 
L 2222 3053 
L 1275 3053 
L 1275 0 
L 697 0 
L 697 3053 
L 147 3053 
L 147 3500 
L 697 3500 
L 697 3744 
Q 697 4328 969 4595 
Q 1241 4863 1831 4863 
L 2375 4863 
z
" transform="scale(0.015625)"/>
       <path id="DejaVuSans-2d" d="M 313 2009 
L 1997 2009 
L 1997 1497 
L 313 1497 
L 313 2009 
z
" transform="scale(0.015625)"/>
       <path id="DejaVuSans-70" d="M 1159 525 
L 1159 -1331 
L 581 -1331 
L 581 3500 
L 1159 3500 
L 1159 2969 
Q 1341 3281 1617 3432 
Q 1894 3584 2278 3584 
Q 2916 3584 3314 3078 
Q 3713 2572 3713 1747 
Q 3713 922 3314 415 
Q 2916 -91 2278 -91 
Q 1894 -91 1617 61 
Q 1341 213 1159 525 
z
M 3116 1747 
Q 3116 2381 2855 2742 
Q 2594 3103 2138 3103 
Q 1681 3103 1420 2742 
Q 1159 2381 1159 1747 
Q 1159 1113 1420 752 
Q 1681 391 2138 391 
Q 2594 391 2855 752 
Q 3116 1113 3116 1747 
z
" transform="scale(0.015625)"/>
       <path id="DejaVuSans-76" d="M 191 3500 
L 800 3500 
L 1894 563 
L 2988 3500 
L 3597 3500 
L 2284 0 
L 1503 0 
L 191 3500 
z
" transform="scale(0.015625)"/>
       <path id="DejaVuSans-25" d="M 4653 2053 
Q 4381 2053 4226 1822 
Q 4072 1591 4072 1178 
Q 4072 772 4226 539 
Q 4381 306 4653 306 
Q 4919 306 5073 539 
Q 5228 772 5228 1178 
Q 5228 1588 5073 1820 
Q 4919 2053 4653 2053 
z
M 4653 2450 
Q 5147 2450 5437 2106 
Q 5728 1763 5728 1178 
Q 5728 594 5436 251 
Q 5144 -91 4653 -91 
Q 4153 -91 3862 251 
Q 3572 594 3572 1178 
Q 3572 1766 3864 2108 
Q 4156 2450 4653 2450 
z
M 1428 4353 
Q 1159 4353 1004 4120 
Q 850 3888 850 3481 
Q 850 3069 1003 2837 
Q 1156 2606 1428 2606 
Q 1700 2606 1854 2837 
Q 2009 3069 2009 3481 
Q 2009 3884 1853 4118 
Q 1697 4353 1428 4353 
z
M 4250 4750 
L 4750 4750 
L 1831 -91 
L 1331 -91 
L 4250 4750 
z
M 1428 4750 
Q 1922 4750 2215 4408 
Q 2509 4066 2509 3481 
Q 2509 2891 2217 2550 
Q 1925 2209 1428 2209 
Q 931 2209 642 2551 
Q 353 2894 353 3481 
Q 353 4063 643 4406 
Q 934 4750 1428 4750 
z
" transform="scale(0.015625)"/>
      </defs>
      <use xlink:href="#DejaVuSans-4d"/>
      <use xlink:href="#DejaVuSans-61" transform="translate(86.279297 0)"/>
      <use xlink:href="#DejaVuSans-74" transform="translate(147.558594 0)"/>
      <use xlink:href="#DejaVuSans-63" transform="translate(186.767578 0)"/>
      <use xlink:href="#DejaVuSans-68" transform="translate(241.748047 0)"/>
      <use xlink:href="#DejaVuSans-65" transform="translate(305.126953 0)"/>
      <use xlink:href="#DejaVuSans-64" transform="translate(366.650391 0)"/>
      <use xlink:href="#DejaVuSans-20" transform="translate(430.126953 0)"/>
      <use xlink:href="#DejaVuSans-57" transform="translate(461.914062 0)"/>
      <use xlink:href="#DejaVuSans-61" transform="translate(554.416016 0)"/>
      <use xlink:href="#DejaVuSans-6e" transform="translate(615.695312 0)"/>
      <use xlink:href="#DejaVuSans-67" transform="translate(679.074219 0)"/>
      <use xlink:href="#DejaVuSans-20" transform="translate(742.550781 0)"/>
      <use xlink:href="#DejaVuSans-66" transform="translate(774.337891 0)"/>
      <use xlink:href="#DejaVuSans-65" transform="translate(809.542969 0)"/>
      <use xlink:href="#DejaVuSans-61" transform="translate(871.066406 0)"/>
      <use xlink:href="#DejaVuSans-74" transform="translate(932.345703 0)"/>
      <use xlink:href="#DejaVuSans-75" transform="translate(971.554688 0)"/>
      <use xlink:href="#DejaVuSans-72" transform="translate(1034.933594 0)"/>
      <use xlink:href="#DejaVuSans-65" transform="translate(1073.796875 0)"/>
      <use xlink:href="#DejaVuSans-2d" transform="translate(1135.320312 0)"/>
      <use xlink:href="#DejaVuSans-73" transform="translate(1171.404297 0)"/>
      <use xlink:href="#DejaVuSans-70" transform="translate(1223.503906 0)"/>
      <use xlink:href="#DejaVuSans-61" transform="translate(1286.980469 0)"/>
      <use xlink:href="#DejaVuSans-63" transform="translate(1348.259766 0)"/>
      <use xlink:href="#DejaVuSans-65" transform="translate(1403.240234 0)"/>
      <use xlink:href="#DejaVuSans-20" transform="translate(1464.763672 0)"/>
      <use xlink:href="#DejaVuSans-63" transform="translate(1496.550781 0)"/>
      <use xlink:href="#DejaVuSans-6f" transform="translate(1551.53125 0)"/>
      <use xlink:href="#DejaVuSans-76" transform="translate(1612.712891 0)"/>
      <use xlink:href="#DejaVuSans-65" transform="translate(1671.892578 0)"/>
      <use xlink:href="#DejaVuSans-72" transform="translate(1733.416016 0)"/>
      <use xlink:href="#DejaVuSans-61" transform="translate(1774.529297 0)"/>
      <use xlink:href="#DejaVuSans-67" transform="translate(1835.808594 0)"/>
      <use xlink:href="#DejaVuSans-65" transform="translate(1899.285156 0)"/>
      <use xlink:href="#DejaVuSans-20" transform="translate(1960.808594 0)"/>
      <use xlink:href="#DejaVuSans-28" transform="translate(1992.595703 0)"/>
      <use xlink:href="#DejaVuSans-25" transform="translate(2031.609375 0)"/>
      <use xlink:href="#DejaVuSans-29" transform="translate(2126.628906 0)"/>
     </g>
    </g>
   </g>
   <g id="matplotlib.axis_4">
    <g id="ytick_6">
     <g id="line2d_28">
      <g>
       <use xlink:href="#m100e245148" x="637.053334" y="89.069019" style="stroke: #000000; stroke-width: 0.8"/>
      </g>
     </g>
     <g id="text_25">
      <!-- RNA | snRNA12 -->
      <g transform="translate(553.515834 92.890113) scale(0.1 -0.1)">
       <use xlink:href="#DejaVuSans-52"/>
       <use xlink:href="#DejaVuSans-4e" transform="translate(69.482422 0)"/>
       <use xlink:href="#DejaVuSans-41" transform="translate(144.287109 0)"/>
       <use xlink:href="#DejaVuSans-20" transform="translate(212.695312 0)"/>
       <use xlink:href="#DejaVuSans-7c" transform="translate(244.482422 0)"/>
       <use xlink:href="#DejaVuSans-20" transform="translate(278.173828 0)"/>
       <use xlink:href="#DejaVuSans-73" transform="translate(309.960938 0)"/>
       <use xlink:href="#DejaVuSans-6e" transform="translate(362.060547 0)"/>
       <use xlink:href="#DejaVuSans-52" transform="translate(425.439453 0)"/>
       <use xlink:href="#DejaVuSans-4e" transform="translate(494.921875 0)"/>
       <use xlink:href="#DejaVuSans-41" transform="translate(569.726562 0)"/>
       <use xlink:href="#DejaVuSans-31" transform="translate(638.134766 0)"/>
       <use xlink:href="#DejaVuSans-32" transform="translate(701.757812 0)"/>
      </g>
     </g>
    </g>
    <g id="ytick_7">
     <g id="line2d_29">
      <g>
       <use xlink:href="#m100e245148" x="637.053334" y="159.796228" style="stroke: #000000; stroke-width: 0.8"/>
      </g>
     </g>
     <g id="text_26">
      <!-- RNA | Full metadata -->
      <g transform="translate(530.317396 163.617322) scale(0.1 -0.1)">
       <use xlink:href="#DejaVuSans-52"/>
       <use xlink:href="#DejaVuSans-4e" transform="translate(69.482422 0)"/>
       <use xlink:href="#DejaVuSans-41" transform="translate(144.287109 0)"/>
       <use xlink:href="#DejaVuSans-20" transform="translate(212.695312 0)"/>
       <use xlink:href="#DejaVuSans-7c" transform="translate(244.482422 0)"/>
       <use xlink:href="#DejaVuSans-20" transform="translate(278.173828 0)"/>
       <use xlink:href="#DejaVuSans-46" transform="translate(309.960938 0)"/>
       <use xlink:href="#DejaVuSans-75" transform="translate(361.980469 0)"/>
       <use xlink:href="#DejaVuSans-6c" transform="translate(425.359375 0)"/>
       <use xlink:href="#DejaVuSans-6c" transform="translate(453.142578 0)"/>
       <use xlink:href="#DejaVuSans-20" transform="translate(480.925781 0)"/>
       <use xlink:href="#DejaVuSans-6d" transform="translate(512.712891 0)"/>
       <use xlink:href="#DejaVuSans-65" transform="translate(610.125 0)"/>
       <use xlink:href="#DejaVuSans-74" transform="translate(671.648438 0)"/>
       <use xlink:href="#DejaVuSans-61" transform="translate(710.857422 0)"/>
       <use xlink:href="#DejaVuSans-64" transform="translate(772.136719 0)"/>
       <use xlink:href="#DejaVuSans-61" transform="translate(835.613281 0)"/>
       <use xlink:href="#DejaVuSans-74" transform="translate(896.892578 0)"/>
       <use xlink:href="#DejaVuSans-61" transform="translate(936.101562 0)"/>
      </g>
     </g>
    </g>
    <g id="ytick_8">
     <g id="line2d_30">
      <g>
       <use xlink:href="#m100e245148" x="637.053334" y="230.523438" style="stroke: #000000; stroke-width: 0.8"/>
      </g>
     </g>
     <g id="text_27">
      <!-- ATAC | ROSMAP -->
      <g transform="translate(552.614271 234.344531) scale(0.1 -0.1)">
       <use xlink:href="#DejaVuSans-41"/>
       <use xlink:href="#DejaVuSans-54" transform="translate(60.658203 0)"/>
       <use xlink:href="#DejaVuSans-41" transform="translate(113.992188 0)"/>
       <use xlink:href="#DejaVuSans-43" transform="translate(180.650391 0)"/>
       <use xlink:href="#DejaVuSans-20" transform="translate(250.474609 0)"/>
       <use xlink:href="#DejaVuSans-7c" transform="translate(282.261719 0)"/>
       <use xlink:href="#DejaVuSans-20" transform="translate(315.953125 0)"/>
       <use xlink:href="#DejaVuSans-52" transform="translate(347.740234 0)"/>
       <use xlink:href="#DejaVuSans-4f" transform="translate(417.222656 0)"/>
       <use xlink:href="#DejaVuSans-53" transform="translate(495.933594 0)"/>
       <use xlink:href="#DejaVuSans-4d" transform="translate(559.410156 0)"/>
       <use xlink:href="#DejaVuSans-41" transform="translate(645.689453 0)"/>
       <use xlink:href="#DejaVuSans-50" transform="translate(714.097656 0)"/>
      </g>
     </g>
    </g>
    <g id="ytick_9">
     <g id="line2d_31">
      <g>
       <use xlink:href="#m100e245148" x="637.053334" y="301.250647" style="stroke: #000000; stroke-width: 0.8"/>
      </g>
     </g>
     <g id="text_28">
      <!-- ATAC | Li -->
      <g transform="translate(586.931459 305.071741) scale(0.1 -0.1)">
       <use xlink:href="#DejaVuSans-41"/>
       <use xlink:href="#DejaVuSans-54" transform="translate(60.658203 0)"/>
       <use xlink:href="#DejaVuSans-41" transform="translate(113.992188 0)"/>
       <use xlink:href="#DejaVuSans-43" transform="translate(180.650391 0)"/>
       <use xlink:href="#DejaVuSans-20" transform="translate(250.474609 0)"/>
       <use xlink:href="#DejaVuSans-7c" transform="translate(282.261719 0)"/>
       <use xlink:href="#DejaVuSans-20" transform="translate(315.953125 0)"/>
       <use xlink:href="#DejaVuSans-4c" transform="translate(347.740234 0)"/>
       <use xlink:href="#DejaVuSans-69" transform="translate(403.453125 0)"/>
      </g>
     </g>
    </g>
    <g id="ytick_10">
     <g id="line2d_32">
      <g>
       <use xlink:href="#m100e245148" x="637.053334" y="371.977856" style="stroke: #000000; stroke-width: 0.8"/>
      </g>
     </g>
     <g id="text_29">
      <!-- ATAC | Mannens -->
      <g transform="translate(550.150209 375.79895) scale(0.1 -0.1)">
       <use xlink:href="#DejaVuSans-41"/>
       <use xlink:href="#DejaVuSans-54" transform="translate(60.658203 0)"/>
       <use xlink:href="#DejaVuSans-41" transform="translate(113.992188 0)"/>
       <use xlink:href="#DejaVuSans-43" transform="translate(180.650391 0)"/>
       <use xlink:href="#DejaVuSans-20" transform="translate(250.474609 0)"/>
       <use xlink:href="#DejaVuSans-7c" transform="translate(282.261719 0)"/>
       <use xlink:href="#DejaVuSans-20" transform="translate(315.953125 0)"/>
       <use xlink:href="#DejaVuSans-4d" transform="translate(347.740234 0)"/>
       <use xlink:href="#DejaVuSans-61" transform="translate(434.019531 0)"/>
       <use xlink:href="#DejaVuSans-6e" transform="translate(495.298828 0)"/>
       <use xlink:href="#DejaVuSans-6e" transform="translate(558.677734 0)"/>
       <use xlink:href="#DejaVuSans-65" transform="translate(622.056641 0)"/>
       <use xlink:href="#DejaVuSans-6e" transform="translate(683.580078 0)"/>
       <use xlink:href="#DejaVuSans-73" transform="translate(746.958984 0)"/>
      </g>
     </g>
    </g>
   </g>
   <g id="patch_18">
    <path d="M 637.053334 417.24327 
L 637.053334 43.803605 
" style="fill: none; stroke: #000000; stroke-width: 0.8; stroke-linejoin: miter; stroke-linecap: square"/>
   </g>
   <g id="patch_19">
    <path d="M 1025.478051 417.24327 
L 1025.478051 43.803605 
" style="fill: none; stroke: #000000; stroke-width: 0.8; stroke-linejoin: miter; stroke-linecap: square"/>
   </g>
   <g id="patch_20">
    <path d="M 637.053334 417.24327 
L 1025.478051 417.24327 
" style="fill: none; stroke: #000000; stroke-width: 0.8; stroke-linejoin: miter; stroke-linecap: square"/>
   </g>
   <g id="patch_21">
    <path d="M 637.053334 43.803605 
L 1025.478051 43.803605 
" style="fill: none; stroke: #000000; stroke-width: 0.8; stroke-linejoin: miter; stroke-linecap: square"/>
   </g>
   <g id="text_30">
    <!-- 2048/2048 -->
    <g transform="translate(1012.530561 91.828394) scale(0.1 -0.1)">
     <defs>
      <path id="DejaVuSans-2f" d="M 1625 4666 
L 2156 4666 
L 531 -594 
L 0 -594 
L 1625 4666 
z
" transform="scale(0.015625)"/>
     </defs>
     <use xlink:href="#DejaVuSans-32"/>
     <use xlink:href="#DejaVuSans-30" transform="translate(63.623047 0)"/>
     <use xlink:href="#DejaVuSans-34" transform="translate(127.246094 0)"/>
     <use xlink:href="#DejaVuSans-38" transform="translate(190.869141 0)"/>
     <use xlink:href="#DejaVuSans-2f" transform="translate(254.492188 0)"/>
     <use xlink:href="#DejaVuSans-32" transform="translate(288.183594 0)"/>
     <use xlink:href="#DejaVuSans-30" transform="translate(351.806641 0)"/>
     <use xlink:href="#DejaVuSans-34" transform="translate(415.429688 0)"/>
     <use xlink:href="#DejaVuSans-38" transform="translate(479.052734 0)"/>
    </g>
   </g>
   <g id="text_31">
    <!-- 1999/2048 -->
    <g transform="translate(924.022324 162.555603) scale(0.1 -0.1)">
     <use xlink:href="#DejaVuSans-31"/>
     <use xlink:href="#DejaVuSans-39" transform="translate(63.623047 0)"/>
     <use xlink:href="#DejaVuSans-39" transform="translate(127.246094 0)"/>
     <use xlink:href="#DejaVuSans-39" transform="translate(190.869141 0)"/>
     <use xlink:href="#DejaVuSans-2f" transform="translate(254.492188 0)"/>
     <use xlink:href="#DejaVuSans-32" transform="translate(288.183594 0)"/>
     <use xlink:href="#DejaVuSans-30" transform="translate(351.806641 0)"/>
     <use xlink:href="#DejaVuSans-34" transform="translate(415.429688 0)"/>
     <use xlink:href="#DejaVuSans-38" transform="translate(479.052734 0)"/>
    </g>
   </g>
   <g id="text_32">
    <!-- 4064/4096 -->
    <g transform="translate(983.629912 233.282813) scale(0.1 -0.1)">
     <use xlink:href="#DejaVuSans-34"/>
     <use xlink:href="#DejaVuSans-30" transform="translate(63.623047 0)"/>
     <use xlink:href="#DejaVuSans-36" transform="translate(127.246094 0)"/>
     <use xlink:href="#DejaVuSans-34" transform="translate(190.869141 0)"/>
     <use xlink:href="#DejaVuSans-2f" transform="translate(254.492188 0)"/>
     <use xlink:href="#DejaVuSans-34" transform="translate(288.183594 0)"/>
     <use xlink:href="#DejaVuSans-30" transform="translate(351.806641 0)"/>
     <use xlink:href="#DejaVuSans-39" transform="translate(415.429688 0)"/>
     <use xlink:href="#DejaVuSans-36" transform="translate(479.052734 0)"/>
    </g>
   </g>
   <g id="text_33">
    <!-- 3921/4096 -->
    <g transform="translate(854.480139 304.010022) scale(0.1 -0.1)">
     <use xlink:href="#DejaVuSans-33"/>
     <use xlink:href="#DejaVuSans-39" transform="translate(63.623047 0)"/>
     <use xlink:href="#DejaVuSans-32" transform="translate(127.246094 0)"/>
     <use xlink:href="#DejaVuSans-31" transform="translate(190.869141 0)"/>
     <use xlink:href="#DejaVuSans-2f" transform="translate(254.492188 0)"/>
     <use xlink:href="#DejaVuSans-34" transform="translate(288.183594 0)"/>
     <use xlink:href="#DejaVuSans-30" transform="translate(351.806641 0)"/>
     <use xlink:href="#DejaVuSans-39" transform="translate(415.429688 0)"/>
     <use xlink:href="#DejaVuSans-36" transform="translate(479.052734 0)"/>
    </g>
   </g>
   <g id="text_34">
    <!-- 4092/4096 -->
    <g transform="translate(1008.91798 374.737231) scale(0.1 -0.1)">
     <use xlink:href="#DejaVuSans-34"/>
     <use xlink:href="#DejaVuSans-30" transform="translate(63.623047 0)"/>
     <use xlink:href="#DejaVuSans-39" transform="translate(127.246094 0)"/>
     <use xlink:href="#DejaVuSans-32" transform="translate(190.869141 0)"/>
     <use xlink:href="#DejaVuSans-2f" transform="translate(254.492188 0)"/>
     <use xlink:href="#DejaVuSans-34" transform="translate(288.183594 0)"/>
     <use xlink:href="#DejaVuSans-30" transform="translate(351.806641 0)"/>
     <use xlink:href="#DejaVuSans-39" transform="translate(415.429688 0)"/>
     <use xlink:href="#DejaVuSans-36" transform="translate(479.052734 0)"/>
    </g>
   </g>
   <g id="text_35">
    <!-- Feature compatibility after projection -->
    <g transform="translate(719.687255 37.803605) scale(0.12 -0.12)">
     <defs>
      <path id="DejaVuSans-62" d="M 3116 1747 
Q 3116 2381 2855 2742 
Q 2594 3103 2138 3103 
Q 1681 3103 1420 2742 
Q 1159 2381 1159 1747 
Q 1159 1113 1420 752 
Q 1681 391 2138 391 
Q 2594 391 2855 752 
Q 3116 1113 3116 1747 
z
M 1159 2969 
Q 1341 3281 1617 3432 
Q 1894 3584 2278 3584 
Q 2916 3584 3314 3078 
Q 3713 2572 3713 1747 
Q 3713 922 3314 415 
Q 2916 -91 2278 -91 
Q 1894 -91 1617 61 
Q 1341 213 1159 525 
L 1159 0 
L 581 0 
L 581 4863 
L 1159 4863 
L 1159 2969 
z
" transform="scale(0.015625)"/>
      <path id="DejaVuSans-79" d="M 2059 -325 
Q 1816 -950 1584 -1140 
Q 1353 -1331 966 -1331 
L 506 -1331 
L 506 -850 
L 844 -850 
Q 1081 -850 1212 -737 
Q 1344 -625 1503 -206 
L 1606 56 
L 191 3500 
L 800 3500 
L 1894 763 
L 2988 3500 
L 3597 3500 
L 2059 -325 
z
" transform="scale(0.015625)"/>
     </defs>
     <use xlink:href="#DejaVuSans-46"/>
     <use xlink:href="#DejaVuSans-65" transform="translate(52.019531 0)"/>
     <use xlink:href="#DejaVuSans-61" transform="translate(113.542969 0)"/>
     <use xlink:href="#DejaVuSans-74" transform="translate(174.822266 0)"/>
     <use xlink:href="#DejaVuSans-75" transform="translate(214.03125 0)"/>
     <use xlink:href="#DejaVuSans-72" transform="translate(277.410156 0)"/>
     <use xlink:href="#DejaVuSans-65" transform="translate(316.273438 0)"/>
     <use xlink:href="#DejaVuSans-20" transform="translate(377.796875 0)"/>
     <use xlink:href="#DejaVuSans-63" transform="translate(409.583984 0)"/>
     <use xlink:href="#DejaVuSans-6f" transform="translate(464.564453 0)"/>
     <use xlink:href="#DejaVuSans-6d" transform="translate(525.746094 0)"/>
     <use xlink:href="#DejaVuSans-70" transform="translate(623.158203 0)"/>
     <use xlink:href="#DejaVuSans-61" transform="translate(686.634766 0)"/>
     <use xlink:href="#DejaVuSans-74" transform="translate(747.914062 0)"/>
     <use xlink:href="#DejaVuSans-69" transform="translate(787.123047 0)"/>
     <use xlink:href="#DejaVuSans-62" transform="translate(814.90625 0)"/>
     <use xlink:href="#DejaVuSans-69" transform="translate(878.382812 0)"/>
     <use xlink:href="#DejaVuSans-6c" transform="translate(906.166016 0)"/>
     <use xlink:href="#DejaVuSans-69" transform="translate(933.949219 0)"/>
     <use xlink:href="#DejaVuSans-74" transform="translate(961.732422 0)"/>
     <use xlink:href="#DejaVuSans-79" transform="translate(1000.941406 0)"/>
     <use xlink:href="#DejaVuSans-20" transform="translate(1060.121094 0)"/>
     <use xlink:href="#DejaVuSans-61" transform="translate(1091.908203 0)"/>
     <use xlink:href="#DejaVuSans-66" transform="translate(1153.1875 0)"/>
     <use xlink:href="#DejaVuSans-74" transform="translate(1186.642578 0)"/>
     <use xlink:href="#DejaVuSans-65" transform="translate(1225.851562 0)"/>
     <use xlink:href="#DejaVuSans-72" transform="translate(1287.375 0)"/>
     <use xlink:href="#DejaVuSans-20" transform="translate(1328.488281 0)"/>
     <use xlink:href="#DejaVuSans-70" transform="translate(1360.275391 0)"/>
     <use xlink:href="#DejaVuSans-72" transform="translate(1423.751953 0)"/>
     <use xlink:href="#DejaVuSans-6f" transform="translate(1462.615234 0)"/>
     <use xlink:href="#DejaVuSans-6a" transform="translate(1523.796875 0)"/>
     <use xlink:href="#DejaVuSans-65" transform="translate(1551.580078 0)"/>
     <use xlink:href="#DejaVuSans-63" transform="translate(1613.103516 0)"/>
     <use xlink:href="#DejaVuSans-74" transform="translate(1668.083984 0)"/>
     <use xlink:href="#DejaVuSans-69" transform="translate(1707.292969 0)"/>
     <use xlink:href="#DejaVuSans-6f" transform="translate(1735.076172 0)"/>
     <use xlink:href="#DejaVuSans-6e" transform="translate(1796.257812 0)"/>
    </g>
   </g>
  </g>
  <g id="text_36">
   <!-- Apollo Stage-1 Mixed Pretraining: Data Expansion Snapshot -->
   <g transform="translate(298.15476 19.3575) scale(0.16 -0.16)">
    <defs>
     <path id="DejaVuSans-3a" d="M 750 794 
L 1409 794 
L 1409 0 
L 750 0 
L 750 794 
z
M 750 3309 
L 1409 3309 
L 1409 2516 
L 750 2516 
L 750 3309 
z
" transform="scale(0.015625)"/>
     <path id="DejaVuSans-44" d="M 1259 4147 
L 1259 519 
L 2022 519 
Q 2988 519 3436 956 
Q 3884 1394 3884 2338 
Q 3884 3275 3436 3711 
Q 2988 4147 2022 4147 
L 1259 4147 
z
M 628 4666 
L 1925 4666 
Q 3281 4666 3915 4102 
Q 4550 3538 4550 2338 
Q 4550 1131 3912 565 
Q 3275 0 1925 0 
L 628 0 
L 628 4666 
z
" transform="scale(0.015625)"/>
     <path id="DejaVuSans-45" d="M 628 4666 
L 3578 4666 
L 3578 4134 
L 1259 4134 
L 1259 2753 
L 3481 2753 
L 3481 2222 
L 1259 2222 
L 1259 531 
L 3634 531 
L 3634 0 
L 628 0 
L 628 4666 
z
" transform="scale(0.015625)"/>
    </defs>
    <use xlink:href="#DejaVuSans-41"/>
    <use xlink:href="#DejaVuSans-70" transform="translate(68.408203 0)"/>
    <use xlink:href="#DejaVuSans-6f" transform="translate(131.884766 0)"/>
    <use xlink:href="#DejaVuSans-6c" transform="translate(193.066406 0)"/>
    <use xlink:href="#DejaVuSans-6c" transform="translate(220.849609 0)"/>
    <use xlink:href="#DejaVuSans-6f" transform="translate(248.632812 0)"/>
    <use xlink:href="#DejaVuSans-20" transform="translate(309.814453 0)"/>
    <use xlink:href="#DejaVuSans-53" transform="translate(341.601562 0)"/>
    <use xlink:href="#DejaVuSans-74" transform="translate(405.078125 0)"/>
    <use xlink:href="#DejaVuSans-61" transform="translate(444.287109 0)"/>
    <use xlink:href="#DejaVuSans-67" transform="translate(505.566406 0)"/>
    <use xlink:href="#DejaVuSans-65" transform="translate(569.042969 0)"/>
    <use xlink:href="#DejaVuSans-2d" transform="translate(630.566406 0)"/>
    <use xlink:href="#DejaVuSans-31" transform="translate(666.650391 0)"/>
    <use xlink:href="#DejaVuSans-20" transform="translate(730.273438 0)"/>
    <use xlink:href="#DejaVuSans-4d" transform="translate(762.060547 0)"/>
    <use xlink:href="#DejaVuSans-69" transform="translate(848.339844 0)"/>
    <use xlink:href="#DejaVuSans-78" transform="translate(876.123047 0)"/>
    <use xlink:href="#DejaVuSans-65" transform="translate(932.177734 0)"/>
    <use xlink:href="#DejaVuSans-64" transform="translate(993.701172 0)"/>
    <use xlink:href="#DejaVuSans-20" transform="translate(1057.177734 0)"/>
    <use xlink:href="#DejaVuSans-50" transform="translate(1088.964844 0)"/>
    <use xlink:href="#DejaVuSans-72" transform="translate(1147.517578 0)"/>
    <use xlink:href="#DejaVuSans-65" transform="translate(1186.380859 0)"/>
    <use xlink:href="#DejaVuSans-74" transform="translate(1247.904297 0)"/>
    <use xlink:href="#DejaVuSans-72" transform="translate(1287.113281 0)"/>
    <use xlink:href="#DejaVuSans-61" transform="translate(1328.226562 0)"/>
    <use xlink:href="#DejaVuSans-69" transform="translate(1389.505859 0)"/>
    <use xlink:href="#DejaVuSans-6e" transform="translate(1417.289062 0)"/>
    <use xlink:href="#DejaVuSans-69" transform="translate(1480.667969 0)"/>
    <use xlink:href="#DejaVuSans-6e" transform="translate(1508.451172 0)"/>
    <use xlink:href="#DejaVuSans-67" transform="translate(1571.830078 0)"/>
    <use xlink:href="#DejaVuSans-3a" transform="translate(1635.306641 0)"/>
    <use xlink:href="#DejaVuSans-20" transform="translate(1668.998047 0)"/>
    <use xlink:href="#DejaVuSans-44" transform="translate(1700.785156 0)"/>
    <use xlink:href="#DejaVuSans-61" transform="translate(1777.787109 0)"/>
    <use xlink:href="#DejaVuSans-74" transform="translate(1839.066406 0)"/>
    <use xlink:href="#DejaVuSans-61" transform="translate(1878.275391 0)"/>
    <use xlink:href="#DejaVuSans-20" transform="translate(1939.554688 0)"/>
    <use xlink:href="#DejaVuSans-45" transform="translate(1971.341797 0)"/>
    <use xlink:href="#DejaVuSans-78" transform="translate(2034.525391 0)"/>
    <use xlink:href="#DejaVuSans-70" transform="translate(2093.705078 0)"/>
    <use xlink:href="#DejaVuSans-61" transform="translate(2157.181641 0)"/>
    <use xlink:href="#DejaVuSans-6e" transform="translate(2218.460938 0)"/>
    <use xlink:href="#DejaVuSans-73" transform="translate(2281.839844 0)"/>
    <use xlink:href="#DejaVuSans-69" transform="translate(2333.939453 0)"/>
    <use xlink:href="#DejaVuSans-6f" transform="translate(2361.722656 0)"/>
    <use xlink:href="#DejaVuSans-6e" transform="translate(2422.904297 0)"/>
    <use xlink:href="#DejaVuSans-20" transform="translate(2486.283203 0)"/>
    <use xlink:href="#DejaVuSans-53" transform="translate(2518.070312 0)"/>
    <use xlink:href="#DejaVuSans-6e" transform="translate(2581.546875 0)"/>
    <use xlink:href="#DejaVuSans-61" transform="translate(2644.925781 0)"/>
    <use xlink:href="#DejaVuSans-70" transform="translate(2706.205078 0)"/>
    <use xlink:href="#DejaVuSans-73" transform="translate(2769.681641 0)"/>
    <use xlink:href="#DejaVuSans-68" transform="translate(2821.78125 0)"/>
    <use xlink:href="#DejaVuSans-6f" transform="translate(2885.160156 0)"/>
    <use xlink:href="#DejaVuSans-74" transform="translate(2946.341797 0)"/>
   </g>
  </g>
  <g id="text_37">
   <!-- External corpora now available for mixed pretraining: 3.81M RNA cells and 2.88M ATAC cells. Wang remains the paired alignment anchor. -->
   <g transform="translate(193.222416 455.06376) scale(0.1 -0.1)">
    <defs>
     <path id="DejaVuSans-77" d="M 269 3500 
L 844 3500 
L 1563 769 
L 2278 3500 
L 2956 3500 
L 3675 769 
L 4391 3500 
L 4966 3500 
L 4050 0 
L 3372 0 
L 2619 2869 
L 1863 0 
L 1184 0 
L 269 3500 
z
" transform="scale(0.015625)"/>
    </defs>
    <use xlink:href="#DejaVuSans-45"/>
    <use xlink:href="#DejaVuSans-78" transform="translate(63.183594 0)"/>
    <use xlink:href="#DejaVuSans-74" transform="translate(122.363281 0)"/>
    <use xlink:href="#DejaVuSans-65" transform="translate(161.572266 0)"/>
    <use xlink:href="#DejaVuSans-72" transform="translate(223.095703 0)"/>
    <use xlink:href="#DejaVuSans-6e" transform="translate(262.458984 0)"/>
    <use xlink:href="#DejaVuSans-61" transform="translate(325.837891 0)"/>
    <use xlink:href="#DejaVuSans-6c" transform="translate(387.117188 0)"/>
    <use xlink:href="#DejaVuSans-20" transform="translate(414.900391 0)"/>
    <use xlink:href="#DejaVuSans-63" transform="translate(446.6875 0)"/>
    <use xlink:href="#DejaVuSans-6f" transform="translate(501.667969 0)"/>
    <use xlink:href="#DejaVuSans-72" transform="translate(562.849609 0)"/>
    <use xlink:href="#DejaVuSans-70" transform="translate(603.962891 0)"/>
    <use xlink:href="#DejaVuSans-6f" transform="translate(667.439453 0)"/>
    <use xlink:href="#DejaVuSans-72" transform="translate(728.621094 0)"/>
    <use xlink:href="#DejaVuSans-61" transform="translate(769.734375 0)"/>
    <use xlink:href="#DejaVuSans-20" transform="translate(831.013672 0)"/>
    <use xlink:href="#DejaVuSans-6e" transform="translate(862.800781 0)"/>
    <use xlink:href="#DejaVuSans-6f" transform="translate(926.179688 0)"/>
    <use xlink:href="#DejaVuSans-77" transform="translate(987.361328 0)"/>
    <use xlink:href="#DejaVuSans-20" transform="translate(1069.148438 0)"/>
    <use xlink:href="#DejaVuSans-61" transform="translate(1100.935547 0)"/>
    <use xlink:href="#DejaVuSans-76" transform="translate(1162.214844 0)"/>
    <use xlink:href="#DejaVuSans-61" transform="translate(1221.394531 0)"/>
    <use xlink:href="#DejaVuSans-69" transform="translate(1282.673828 0)"/>
    <use xlink:href="#DejaVuSans-6c" transform="translate(1310.457031 0)"/>
    <use xlink:href="#DejaVuSans-61" transform="translate(1338.240234 0)"/>
    <use xlink:href="#DejaVuSans-62" transform="translate(1399.519531 0)"/>
    <use xlink:href="#DejaVuSans-6c" transform="translate(1462.996094 0)"/>
    <use xlink:href="#DejaVuSans-65" transform="translate(1490.779297 0)"/>
    <use xlink:href="#DejaVuSans-20" transform="translate(1552.302734 0)"/>
    <use xlink:href="#DejaVuSans-66" transform="translate(1584.089844 0)"/>
    <use xlink:href="#DejaVuSans-6f" transform="translate(1619.294922 0)"/>
    <use xlink:href="#DejaVuSans-72" transform="translate(1680.476562 0)"/>
    <use xlink:href="#DejaVuSans-20" transform="translate(1721.589844 0)"/>
    <use xlink:href="#DejaVuSans-6d" transform="translate(1753.376953 0)"/>
    <use xlink:href="#DejaVuSans-69" transform="translate(1850.789062 0)"/>
    <use xlink:href="#DejaVuSans-78" transform="translate(1878.572266 0)"/>
    <use xlink:href="#DejaVuSans-65" transform="translate(1934.626953 0)"/>
    <use xlink:href="#DejaVuSans-64" transform="translate(1996.150391 0)"/>
    <use xlink:href="#DejaVuSans-20" transform="translate(2059.626953 0)"/>
    <use xlink:href="#DejaVuSans-70" transform="translate(2091.414062 0)"/>
    <use xlink:href="#DejaVuSans-72" transform="translate(2154.890625 0)"/>
    <use xlink:href="#DejaVuSans-65" transform="translate(2193.753906 0)"/>
    <use xlink:href="#DejaVuSans-74" transform="translate(2255.277344 0)"/>
    <use xlink:href="#DejaVuSans-72" transform="translate(2294.486328 0)"/>
    <use xlink:href="#DejaVuSans-61" transform="translate(2335.599609 0)"/>
    <use xlink:href="#DejaVuSans-69" transform="translate(2396.878906 0)"/>
    <use xlink:href="#DejaVuSans-6e" transform="translate(2424.662109 0)"/>
    <use xlink:href="#DejaVuSans-69" transform="translate(2488.041016 0)"/>
    <use xlink:href="#DejaVuSans-6e" transform="translate(2515.824219 0)"/>
    <use xlink:href="#DejaVuSans-67" transform="translate(2579.203125 0)"/>
    <use xlink:href="#DejaVuSans-3a" transform="translate(2642.679688 0)"/>
    <use xlink:href="#DejaVuSans-20" transform="translate(2676.371094 0)"/>
    <use xlink:href="#DejaVuSans-33" transform="translate(2708.158203 0)"/>
    <use xlink:href="#DejaVuSans-2e" transform="translate(2771.78125 0)"/>
    <use xlink:href="#DejaVuSans-38" transform="translate(2803.568359 0)"/>
    <use xlink:href="#DejaVuSans-31" transform="translate(2867.191406 0)"/>
    <use xlink:href="#DejaVuSans-4d" transform="translate(2930.814453 0)"/>
    <use xlink:href="#DejaVuSans-20" transform="translate(3017.09375 0)"/>
    <use xlink:href="#DejaVuSans-52" transform="translate(3048.880859 0)"/>
    <use xlink:href="#DejaVuSans-4e" transform="translate(3118.363281 0)"/>
    <use xlink:href="#DejaVuSans-41" transform="translate(3193.167969 0)"/>
    <use xlink:href="#DejaVuSans-20" transform="translate(3261.576172 0)"/>
    <use xlink:href="#DejaVuSans-63" transform="translate(3293.363281 0)"/>
    <use xlink:href="#DejaVuSans-65" transform="translate(3348.34375 0)"/>
    <use xlink:href="#DejaVuSans-6c" transform="translate(3409.867188 0)"/>
    <use xlink:href="#DejaVuSans-6c" transform="translate(3437.650391 0)"/>
    <use xlink:href="#DejaVuSans-73" transform="translate(3465.433594 0)"/>
    <use xlink:href="#DejaVuSans-20" transform="translate(3517.533203 0)"/>
    <use xlink:href="#DejaVuSans-61" transform="translate(3549.320312 0)"/>
    <use xlink:href="#DejaVuSans-6e" transform="translate(3610.599609 0)"/>
    <use xlink:href="#DejaVuSans-64" transform="translate(3673.978516 0)"/>
    <use xlink:href="#DejaVuSans-20" transform="translate(3737.455078 0)"/>
    <use xlink:href="#DejaVuSans-32" transform="translate(3769.242188 0)"/>
    <use xlink:href="#DejaVuSans-2e" transform="translate(3832.865234 0)"/>
    <use xlink:href="#DejaVuSans-38" transform="translate(3864.652344 0)"/>
    <use xlink:href="#DejaVuSans-38" transform="translate(3928.275391 0)"/>
    <use xlink:href="#DejaVuSans-4d" transform="translate(3991.898438 0)"/>
    <use xlink:href="#DejaVuSans-20" transform="translate(4078.177734 0)"/>
    <use xlink:href="#DejaVuSans-41" transform="translate(4109.964844 0)"/>
    <use xlink:href="#DejaVuSans-54" transform="translate(4170.623047 0)"/>
    <use xlink:href="#DejaVuSans-41" transform="translate(4223.957031 0)"/>
    <use xlink:href="#DejaVuSans-43" transform="translate(4290.615234 0)"/>
    <use xlink:href="#DejaVuSans-20" transform="translate(4360.439453 0)"/>
    <use xlink:href="#DejaVuSans-63" transform="translate(4392.226562 0)"/>
    <use xlink:href="#DejaVuSans-65" transform="translate(4447.207031 0)"/>
    <use xlink:href="#DejaVuSans-6c" transform="translate(4508.730469 0)"/>
    <use xlink:href="#DejaVuSans-6c" transform="translate(4536.513672 0)"/>
    <use xlink:href="#DejaVuSans-73" transform="translate(4564.296875 0)"/>
    <use xlink:href="#DejaVuSans-2e" transform="translate(4616.396484 0)"/>
    <use xlink:href="#DejaVuSans-20" transform="translate(4648.183594 0)"/>
    <use xlink:href="#DejaVuSans-57" transform="translate(4679.970703 0)"/>
    <use xlink:href="#DejaVuSans-61" transform="translate(4772.472656 0)"/>
    <use xlink:href="#DejaVuSans-6e" transform="translate(4833.751953 0)"/>
    <use xlink:href="#DejaVuSans-67" transform="translate(4897.130859 0)"/>
    <use xlink:href="#DejaVuSans-20" transform="translate(4960.607422 0)"/>
    <use xlink:href="#DejaVuSans-72" transform="translate(4992.394531 0)"/>
    <use xlink:href="#DejaVuSans-65" transform="translate(5031.257812 0)"/>
    <use xlink:href="#DejaVuSans-6d" transform="translate(5092.78125 0)"/>
    <use xlink:href="#DejaVuSans-61" transform="translate(5190.193359 0)"/>
    <use xlink:href="#DejaVuSans-69" transform="translate(5251.472656 0)"/>
    <use xlink:href="#DejaVuSans-6e" transform="translate(5279.255859 0)"/>
    <use xlink:href="#DejaVuSans-73" transform="translate(5342.634766 0)"/>
    <use xlink:href="#DejaVuSans-20" transform="translate(5394.734375 0)"/>
    <use xlink:href="#DejaVuSans-74" transform="translate(5426.521484 0)"/>
    <use xlink:href="#DejaVuSans-68" transform="translate(5465.730469 0)"/>
    <use xlink:href="#DejaVuSans-65" transform="translate(5529.109375 0)"/>
    <use xlink:href="#DejaVuSans-20" transform="translate(5590.632812 0)"/>
    <use xlink:href="#DejaVuSans-70" transform="translate(5622.419922 0)"/>
    <use xlink:href="#DejaVuSans-61" transform="translate(5685.896484 0)"/>
    <use xlink:href="#DejaVuSans-69" transform="translate(5747.175781 0)"/>
    <use xlink:href="#DejaVuSans-72" transform="translate(5774.958984 0)"/>
    <use xlink:href="#DejaVuSans-65" transform="translate(5813.822266 0)"/>
    <use xlink:href="#DejaVuSans-64" transform="translate(5875.345703 0)"/>
    <use xlink:href="#DejaVuSans-20" transform="translate(5938.822266 0)"/>
    <use xlink:href="#DejaVuSans-61" transform="translate(5970.609375 0)"/>
    <use xlink:href="#DejaVuSans-6c" transform="translate(6031.888672 0)"/>
    <use xlink:href="#DejaVuSans-69" transform="translate(6059.671875 0)"/>
    <use xlink:href="#DejaVuSans-67" transform="translate(6087.455078 0)"/>
    <use xlink:href="#DejaVuSans-6e" transform="translate(6150.931641 0)"/>
    <use xlink:href="#DejaVuSans-6d" transform="translate(6214.310547 0)"/>
    <use xlink:href="#DejaVuSans-65" transform="translate(6311.722656 0)"/>
    <use xlink:href="#DejaVuSans-6e" transform="translate(6373.246094 0)"/>
    <use xlink:href="#DejaVuSans-74" transform="translate(6436.625 0)"/>
    <use xlink:href="#DejaVuSans-20" transform="translate(6475.833984 0)"/>
    <use xlink:href="#DejaVuSans-61" transform="translate(6507.621094 0)"/>
    <use xlink:href="#DejaVuSans-6e" transform="translate(6568.900391 0)"/>
    <use xlink:href="#DejaVuSans-63" transform="translate(6632.279297 0)"/>
    <use xlink:href="#DejaVuSans-68" transform="translate(6687.259766 0)"/>
    <use xlink:href="#DejaVuSans-6f" transform="translate(6750.638672 0)"/>
    <use xlink:href="#DejaVuSans-72" transform="translate(6811.820312 0)"/>
    <use xlink:href="#DejaVuSans-2e" transform="translate(6843.808594 0)"/>
   </g>
  </g>
 </g>
 <defs>
  <clipPath id="p54fabaebb1">
   <rect x="113.935938" y="43.803605" width="388.424717" height="373.439665"/>
  </clipPath>
  <clipPath id="p047871b9dd">
   <rect x="637.053334" y="43.803605" width="388.424717" height="373.439665"/>
  </clipPath>
 </defs>
</svg>
